%TF.GenerationSoftware,KiCad,Pcbnew,(5.1.12)-1*%
%TF.CreationDate,2022-11-01T09:45:00-07:00*%
%TF.ProjectId,MPS Tune-o-Matic,4d505320-5475-46e6-952d-6f2d4d617469,rev?*%
%TF.SameCoordinates,Original*%
%TF.FileFunction,Soldermask,Top*%
%TF.FilePolarity,Negative*%
%FSLAX46Y46*%
G04 Gerber Fmt 4.6, Leading zero omitted, Abs format (unit mm)*
G04 Created by KiCad (PCBNEW (5.1.12)-1) date 2022-11-01 09:45:00*
%MOMM*%
%LPD*%
G01*
G04 APERTURE LIST*
%ADD10C,1.900000*%
%ADD11O,1.900000X4.100000*%
%ADD12O,4.100000X1.900000*%
%ADD13O,1.200000X1.600000*%
%ADD14O,1.450000X1.800000*%
%ADD15O,1.800000X1.800000*%
G04 APERTURE END LIST*
%TO.C,U4*%
G36*
G01*
X100240000Y-71480000D02*
X100240000Y-71205000D01*
G75*
G02*
X100290000Y-71155000I50000J0D01*
G01*
X100540000Y-71155000D01*
G75*
G02*
X100590000Y-71205000I0J-50000D01*
G01*
X100590000Y-71480000D01*
G75*
G02*
X100540000Y-71530000I-50000J0D01*
G01*
X100290000Y-71530000D01*
G75*
G02*
X100240000Y-71480000I0J50000D01*
G01*
G37*
G36*
G01*
X99740000Y-73005000D02*
X99740000Y-72730000D01*
G75*
G02*
X99790000Y-72680000I50000J0D01*
G01*
X100040000Y-72680000D01*
G75*
G02*
X100090000Y-72730000I0J-50000D01*
G01*
X100090000Y-73005000D01*
G75*
G02*
X100040000Y-73055000I-50000J0D01*
G01*
X99790000Y-73055000D01*
G75*
G02*
X99740000Y-73005000I0J50000D01*
G01*
G37*
G36*
G01*
X99740000Y-71480000D02*
X99740000Y-71205000D01*
G75*
G02*
X99790000Y-71155000I50000J0D01*
G01*
X100040000Y-71155000D01*
G75*
G02*
X100090000Y-71205000I0J-50000D01*
G01*
X100090000Y-71480000D01*
G75*
G02*
X100040000Y-71530000I-50000J0D01*
G01*
X99790000Y-71530000D01*
G75*
G02*
X99740000Y-71480000I0J50000D01*
G01*
G37*
G36*
G01*
X100240000Y-73005000D02*
X100240000Y-72730000D01*
G75*
G02*
X100290000Y-72680000I50000J0D01*
G01*
X100540000Y-72680000D01*
G75*
G02*
X100590000Y-72730000I0J-50000D01*
G01*
X100590000Y-73005000D01*
G75*
G02*
X100540000Y-73055000I-50000J0D01*
G01*
X100290000Y-73055000D01*
G75*
G02*
X100240000Y-73005000I0J50000D01*
G01*
G37*
G36*
G01*
X99215000Y-71730000D02*
X99215000Y-71480000D01*
G75*
G02*
X99265000Y-71430000I50000J0D01*
G01*
X99540000Y-71430000D01*
G75*
G02*
X99590000Y-71480000I0J-50000D01*
G01*
X99590000Y-71730000D01*
G75*
G02*
X99540000Y-71780000I-50000J0D01*
G01*
X99265000Y-71780000D01*
G75*
G02*
X99215000Y-71730000I0J50000D01*
G01*
G37*
G36*
G01*
X99215000Y-72730000D02*
X99215000Y-72480000D01*
G75*
G02*
X99265000Y-72430000I50000J0D01*
G01*
X99540000Y-72430000D01*
G75*
G02*
X99590000Y-72480000I0J-50000D01*
G01*
X99590000Y-72730000D01*
G75*
G02*
X99540000Y-72780000I-50000J0D01*
G01*
X99265000Y-72780000D01*
G75*
G02*
X99215000Y-72730000I0J50000D01*
G01*
G37*
G36*
G01*
X100740000Y-71730000D02*
X100740000Y-71480000D01*
G75*
G02*
X100790000Y-71430000I50000J0D01*
G01*
X101065000Y-71430000D01*
G75*
G02*
X101115000Y-71480000I0J-50000D01*
G01*
X101115000Y-71730000D01*
G75*
G02*
X101065000Y-71780000I-50000J0D01*
G01*
X100790000Y-71780000D01*
G75*
G02*
X100740000Y-71730000I0J50000D01*
G01*
G37*
G36*
G01*
X100740000Y-72730000D02*
X100740000Y-72480000D01*
G75*
G02*
X100790000Y-72430000I50000J0D01*
G01*
X101065000Y-72430000D01*
G75*
G02*
X101115000Y-72480000I0J-50000D01*
G01*
X101115000Y-72730000D01*
G75*
G02*
X101065000Y-72780000I-50000J0D01*
G01*
X100790000Y-72780000D01*
G75*
G02*
X100740000Y-72730000I0J50000D01*
G01*
G37*
G36*
G01*
X99215000Y-72230000D02*
X99215000Y-71980000D01*
G75*
G02*
X99265000Y-71930000I50000J0D01*
G01*
X99540000Y-71930000D01*
G75*
G02*
X99590000Y-71980000I0J-50000D01*
G01*
X99590000Y-72230000D01*
G75*
G02*
X99540000Y-72280000I-50000J0D01*
G01*
X99265000Y-72280000D01*
G75*
G02*
X99215000Y-72230000I0J50000D01*
G01*
G37*
G36*
G01*
X100740000Y-72230000D02*
X100740000Y-71980000D01*
G75*
G02*
X100790000Y-71930000I50000J0D01*
G01*
X101065000Y-71930000D01*
G75*
G02*
X101115000Y-71980000I0J-50000D01*
G01*
X101115000Y-72230000D01*
G75*
G02*
X101065000Y-72280000I-50000J0D01*
G01*
X100790000Y-72280000D01*
G75*
G02*
X100740000Y-72230000I0J50000D01*
G01*
G37*
%TD*%
%TO.C,C18*%
G36*
G01*
X102325000Y-72650000D02*
X102875000Y-72650000D01*
G75*
G02*
X103125000Y-72900000I0J-250000D01*
G01*
X103125000Y-73400000D01*
G75*
G02*
X102875000Y-73650000I-250000J0D01*
G01*
X102325000Y-73650000D01*
G75*
G02*
X102075000Y-73400000I0J250000D01*
G01*
X102075000Y-72900000D01*
G75*
G02*
X102325000Y-72650000I250000J0D01*
G01*
G37*
G36*
G01*
X102325000Y-71100000D02*
X102875000Y-71100000D01*
G75*
G02*
X103125000Y-71350000I0J-250000D01*
G01*
X103125000Y-71850000D01*
G75*
G02*
X102875000Y-72100000I-250000J0D01*
G01*
X102325000Y-72100000D01*
G75*
G02*
X102075000Y-71850000I0J250000D01*
G01*
X102075000Y-71350000D01*
G75*
G02*
X102325000Y-71100000I250000J0D01*
G01*
G37*
%TD*%
%TO.C,C17*%
G36*
G01*
X102450000Y-70075000D02*
X102450000Y-69525000D01*
G75*
G02*
X102700000Y-69275000I250000J0D01*
G01*
X103200000Y-69275000D01*
G75*
G02*
X103450000Y-69525000I0J-250000D01*
G01*
X103450000Y-70075000D01*
G75*
G02*
X103200000Y-70325000I-250000J0D01*
G01*
X102700000Y-70325000D01*
G75*
G02*
X102450000Y-70075000I0J250000D01*
G01*
G37*
G36*
G01*
X100900000Y-70075000D02*
X100900000Y-69525000D01*
G75*
G02*
X101150000Y-69275000I250000J0D01*
G01*
X101650000Y-69275000D01*
G75*
G02*
X101900000Y-69525000I0J-250000D01*
G01*
X101900000Y-70075000D01*
G75*
G02*
X101650000Y-70325000I-250000J0D01*
G01*
X101150000Y-70325000D01*
G75*
G02*
X100900000Y-70075000I0J250000D01*
G01*
G37*
%TD*%
%TO.C,R29*%
G36*
G01*
X129300000Y-29225000D02*
X128700000Y-29225000D01*
G75*
G02*
X128475000Y-29000000I0J225000D01*
G01*
X128475000Y-28550000D01*
G75*
G02*
X128700000Y-28325000I225000J0D01*
G01*
X129300000Y-28325000D01*
G75*
G02*
X129525000Y-28550000I0J-225000D01*
G01*
X129525000Y-29000000D01*
G75*
G02*
X129300000Y-29225000I-225000J0D01*
G01*
G37*
G36*
G01*
X129300000Y-30875000D02*
X128700000Y-30875000D01*
G75*
G02*
X128475000Y-30650000I0J225000D01*
G01*
X128475000Y-30200000D01*
G75*
G02*
X128700000Y-29975000I225000J0D01*
G01*
X129300000Y-29975000D01*
G75*
G02*
X129525000Y-30200000I0J-225000D01*
G01*
X129525000Y-30650000D01*
G75*
G02*
X129300000Y-30875000I-225000J0D01*
G01*
G37*
%TD*%
%TO.C,D8*%
G36*
G01*
X129281250Y-25712500D02*
X128718750Y-25712500D01*
G75*
G02*
X128475000Y-25468750I0J243750D01*
G01*
X128475000Y-24981250D01*
G75*
G02*
X128718750Y-24737500I243750J0D01*
G01*
X129281250Y-24737500D01*
G75*
G02*
X129525000Y-24981250I0J-243750D01*
G01*
X129525000Y-25468750D01*
G75*
G02*
X129281250Y-25712500I-243750J0D01*
G01*
G37*
G36*
G01*
X129281250Y-27287500D02*
X128718750Y-27287500D01*
G75*
G02*
X128475000Y-27043750I0J243750D01*
G01*
X128475000Y-26556250D01*
G75*
G02*
X128718750Y-26312500I243750J0D01*
G01*
X129281250Y-26312500D01*
G75*
G02*
X129525000Y-26556250I0J-243750D01*
G01*
X129525000Y-27043750D01*
G75*
G02*
X129281250Y-27287500I-243750J0D01*
G01*
G37*
%TD*%
%TO.C,J5*%
G36*
G01*
X92050000Y-20900000D02*
X92050000Y-19100000D01*
G75*
G02*
X92100000Y-19050000I50000J0D01*
G01*
X93900000Y-19050000D01*
G75*
G02*
X93950000Y-19100000I0J-50000D01*
G01*
X93950000Y-20900000D01*
G75*
G02*
X93900000Y-20950000I-50000J0D01*
G01*
X92100000Y-20950000D01*
G75*
G02*
X92050000Y-20900000I0J50000D01*
G01*
G37*
D10*
X98000000Y-20000000D03*
%TD*%
D11*
%TO.C,J4*%
X76300000Y-27000000D03*
D12*
X81100000Y-24200000D03*
G36*
G01*
X83350000Y-29100000D02*
X83350000Y-30900000D01*
G75*
G02*
X83300000Y-30950000I-50000J0D01*
G01*
X78900000Y-30950000D01*
G75*
G02*
X78850000Y-30900000I0J50000D01*
G01*
X78850000Y-29100000D01*
G75*
G02*
X78900000Y-29050000I50000J0D01*
G01*
X83300000Y-29050000D01*
G75*
G02*
X83350000Y-29100000I0J-50000D01*
G01*
G37*
%TD*%
%TO.C,J2*%
G36*
G01*
X104550000Y-21400000D02*
X104550000Y-19600000D01*
G75*
G02*
X104600000Y-19550000I50000J0D01*
G01*
X106400000Y-19550000D01*
G75*
G02*
X106450000Y-19600000I0J-50000D01*
G01*
X106450000Y-21400000D01*
G75*
G02*
X106400000Y-21450000I-50000J0D01*
G01*
X104600000Y-21450000D01*
G75*
G02*
X104550000Y-21400000I0J50000D01*
G01*
G37*
D10*
X110500000Y-20500000D03*
X115500000Y-20500000D03*
X120500000Y-20500000D03*
%TD*%
%TO.C,TP8*%
G36*
G01*
X125600000Y-40800000D02*
X127600000Y-40800000D01*
G75*
G02*
X127650000Y-40850000I0J-50000D01*
G01*
X127650000Y-42850000D01*
G75*
G02*
X127600000Y-42900000I-50000J0D01*
G01*
X125600000Y-42900000D01*
G75*
G02*
X125550000Y-42850000I0J50000D01*
G01*
X125550000Y-40850000D01*
G75*
G02*
X125600000Y-40800000I50000J0D01*
G01*
G37*
%TD*%
%TO.C,TP7*%
G36*
G01*
X117600000Y-42900000D02*
X115600000Y-42900000D01*
G75*
G02*
X115550000Y-42850000I0J50000D01*
G01*
X115550000Y-40850000D01*
G75*
G02*
X115600000Y-40800000I50000J0D01*
G01*
X117600000Y-40800000D01*
G75*
G02*
X117650000Y-40850000I0J-50000D01*
G01*
X117650000Y-42850000D01*
G75*
G02*
X117600000Y-42900000I-50000J0D01*
G01*
G37*
%TD*%
%TO.C,TP2*%
G36*
G01*
X122650000Y-52350000D02*
X122650000Y-54350000D01*
G75*
G02*
X122600000Y-54400000I-50000J0D01*
G01*
X120600000Y-54400000D01*
G75*
G02*
X120550000Y-54350000I0J50000D01*
G01*
X120550000Y-52350000D01*
G75*
G02*
X120600000Y-52300000I50000J0D01*
G01*
X122600000Y-52300000D01*
G75*
G02*
X122650000Y-52350000I0J-50000D01*
G01*
G37*
%TD*%
%TO.C,TP1*%
G36*
G01*
X112400000Y-52350000D02*
X112400000Y-54350000D01*
G75*
G02*
X112350000Y-54400000I-50000J0D01*
G01*
X110350000Y-54400000D01*
G75*
G02*
X110300000Y-54350000I0J50000D01*
G01*
X110300000Y-52350000D01*
G75*
G02*
X110350000Y-52300000I50000J0D01*
G01*
X112350000Y-52300000D01*
G75*
G02*
X112400000Y-52350000I0J-50000D01*
G01*
G37*
%TD*%
%TO.C,C1*%
G36*
G01*
X107587500Y-67568750D02*
X107587500Y-68131250D01*
G75*
G02*
X107343750Y-68375000I-243750J0D01*
G01*
X106856250Y-68375000D01*
G75*
G02*
X106612500Y-68131250I0J243750D01*
G01*
X106612500Y-67568750D01*
G75*
G02*
X106856250Y-67325000I243750J0D01*
G01*
X107343750Y-67325000D01*
G75*
G02*
X107587500Y-67568750I0J-243750D01*
G01*
G37*
G36*
G01*
X106012500Y-67568750D02*
X106012500Y-68131250D01*
G75*
G02*
X105768750Y-68375000I-243750J0D01*
G01*
X105281250Y-68375000D01*
G75*
G02*
X105037500Y-68131250I0J243750D01*
G01*
X105037500Y-67568750D01*
G75*
G02*
X105281250Y-67325000I243750J0D01*
G01*
X105768750Y-67325000D01*
G75*
G02*
X106012500Y-67568750I0J-243750D01*
G01*
G37*
%TD*%
%TO.C,C12*%
G36*
G01*
X70818750Y-21287500D02*
X71381250Y-21287500D01*
G75*
G02*
X71625000Y-21531250I0J-243750D01*
G01*
X71625000Y-22018750D01*
G75*
G02*
X71381250Y-22262500I-243750J0D01*
G01*
X70818750Y-22262500D01*
G75*
G02*
X70575000Y-22018750I0J243750D01*
G01*
X70575000Y-21531250D01*
G75*
G02*
X70818750Y-21287500I243750J0D01*
G01*
G37*
G36*
G01*
X70818750Y-22862500D02*
X71381250Y-22862500D01*
G75*
G02*
X71625000Y-23106250I0J-243750D01*
G01*
X71625000Y-23593750D01*
G75*
G02*
X71381250Y-23837500I-243750J0D01*
G01*
X70818750Y-23837500D01*
G75*
G02*
X70575000Y-23593750I0J243750D01*
G01*
X70575000Y-23106250D01*
G75*
G02*
X70818750Y-22862500I243750J0D01*
G01*
G37*
%TD*%
%TO.C,J3*%
G36*
G01*
X60250000Y-18415000D02*
X60250000Y-20415000D01*
G75*
G02*
X60200000Y-20465000I-50000J0D01*
G01*
X58850000Y-20465000D01*
G75*
G02*
X58800000Y-20415000I0J50000D01*
G01*
X58800000Y-18415000D01*
G75*
G02*
X58850000Y-18365000I50000J0D01*
G01*
X60200000Y-18365000D01*
G75*
G02*
X60250000Y-18415000I0J-50000D01*
G01*
G37*
G36*
G01*
X65730000Y-18415000D02*
X65730000Y-20415000D01*
G75*
G02*
X65680000Y-20465000I-50000J0D01*
G01*
X64330000Y-20465000D01*
G75*
G02*
X64280000Y-20415000I0J50000D01*
G01*
X64280000Y-18415000D01*
G75*
G02*
X64330000Y-18365000I50000J0D01*
G01*
X65680000Y-18365000D01*
G75*
G02*
X65730000Y-18415000I0J-50000D01*
G01*
G37*
G36*
G01*
X66187500Y-19815000D02*
X66187500Y-20515000D01*
G75*
G02*
X66137500Y-20565000I-50000J0D01*
G01*
X64312500Y-20565000D01*
G75*
G02*
X64262500Y-20515000I0J50000D01*
G01*
X64262500Y-19815000D01*
G75*
G02*
X64312500Y-19765000I50000J0D01*
G01*
X66137500Y-19765000D01*
G75*
G02*
X66187500Y-19815000I0J-50000D01*
G01*
G37*
G36*
G01*
X60237500Y-19815000D02*
X60237500Y-20515000D01*
G75*
G02*
X60187500Y-20565000I-50000J0D01*
G01*
X58362500Y-20565000D01*
G75*
G02*
X58312500Y-20515000I0J50000D01*
G01*
X58312500Y-19815000D01*
G75*
G02*
X58362500Y-19765000I50000J0D01*
G01*
X60187500Y-19765000D01*
G75*
G02*
X60237500Y-19815000I0J-50000D01*
G01*
G37*
G36*
G01*
X66175000Y-20715000D02*
X66175000Y-22215000D01*
G75*
G02*
X66125000Y-22265000I-50000J0D01*
G01*
X64125000Y-22265000D01*
G75*
G02*
X64075000Y-22215000I0J50000D01*
G01*
X64075000Y-20715000D01*
G75*
G02*
X64125000Y-20665000I50000J0D01*
G01*
X66125000Y-20665000D01*
G75*
G02*
X66175000Y-20715000I0J-50000D01*
G01*
G37*
G36*
G01*
X60425000Y-20735000D02*
X60425000Y-22235000D01*
G75*
G02*
X60375000Y-22285000I-50000J0D01*
G01*
X58375000Y-22285000D01*
G75*
G02*
X58325000Y-22235000I0J50000D01*
G01*
X58325000Y-20735000D01*
G75*
G02*
X58375000Y-20685000I50000J0D01*
G01*
X60375000Y-20685000D01*
G75*
G02*
X60425000Y-20735000I0J-50000D01*
G01*
G37*
G36*
G01*
X63375000Y-20490000D02*
X63775000Y-20490000D01*
G75*
G02*
X63825000Y-20540000I0J-50000D01*
G01*
X63825000Y-22190000D01*
G75*
G02*
X63775000Y-22240000I-50000J0D01*
G01*
X63375000Y-22240000D01*
G75*
G02*
X63325000Y-22190000I0J50000D01*
G01*
X63325000Y-20540000D01*
G75*
G02*
X63375000Y-20490000I50000J0D01*
G01*
G37*
G36*
G01*
X62725000Y-20490000D02*
X63125000Y-20490000D01*
G75*
G02*
X63175000Y-20540000I0J-50000D01*
G01*
X63175000Y-22190000D01*
G75*
G02*
X63125000Y-22240000I-50000J0D01*
G01*
X62725000Y-22240000D01*
G75*
G02*
X62675000Y-22190000I0J50000D01*
G01*
X62675000Y-20540000D01*
G75*
G02*
X62725000Y-20490000I50000J0D01*
G01*
G37*
G36*
G01*
X62075000Y-20490000D02*
X62475000Y-20490000D01*
G75*
G02*
X62525000Y-20540000I0J-50000D01*
G01*
X62525000Y-22190000D01*
G75*
G02*
X62475000Y-22240000I-50000J0D01*
G01*
X62075000Y-22240000D01*
G75*
G02*
X62025000Y-22190000I0J50000D01*
G01*
X62025000Y-20540000D01*
G75*
G02*
X62075000Y-20490000I50000J0D01*
G01*
G37*
G36*
G01*
X61425000Y-20490000D02*
X61825000Y-20490000D01*
G75*
G02*
X61875000Y-20540000I0J-50000D01*
G01*
X61875000Y-22190000D01*
G75*
G02*
X61825000Y-22240000I-50000J0D01*
G01*
X61425000Y-22240000D01*
G75*
G02*
X61375000Y-22190000I0J50000D01*
G01*
X61375000Y-20540000D01*
G75*
G02*
X61425000Y-20490000I50000J0D01*
G01*
G37*
G36*
G01*
X60775000Y-20490000D02*
X61175000Y-20490000D01*
G75*
G02*
X61225000Y-20540000I0J-50000D01*
G01*
X61225000Y-22190000D01*
G75*
G02*
X61175000Y-22240000I-50000J0D01*
G01*
X60775000Y-22240000D01*
G75*
G02*
X60725000Y-22190000I0J50000D01*
G01*
X60725000Y-20540000D01*
G75*
G02*
X60775000Y-20490000I50000J0D01*
G01*
G37*
D13*
X64695000Y-21485000D03*
X59855000Y-21485000D03*
D14*
X65005000Y-18485000D03*
X59545000Y-18485000D03*
G36*
G01*
X62520000Y-16915000D02*
X63950000Y-16915000D01*
G75*
G02*
X64000000Y-16965000I0J-50000D01*
G01*
X64000000Y-19465000D01*
G75*
G02*
X63950000Y-19515000I-50000J0D01*
G01*
X62520000Y-19515000D01*
G75*
G02*
X62470000Y-19465000I0J50000D01*
G01*
X62470000Y-16965000D01*
G75*
G02*
X62520000Y-16915000I50000J0D01*
G01*
G37*
G36*
G01*
X60600000Y-16915000D02*
X62030000Y-16915000D01*
G75*
G02*
X62080000Y-16965000I0J-50000D01*
G01*
X62080000Y-19465000D01*
G75*
G02*
X62030000Y-19515000I-50000J0D01*
G01*
X60600000Y-19515000D01*
G75*
G02*
X60550000Y-19465000I0J50000D01*
G01*
X60550000Y-16965000D01*
G75*
G02*
X60600000Y-16915000I50000J0D01*
G01*
G37*
%TD*%
%TO.C,Y1*%
G36*
G01*
X119500000Y-65300000D02*
X120700000Y-65300000D01*
G75*
G02*
X120750000Y-65350000I0J-50000D01*
G01*
X120750000Y-66750000D01*
G75*
G02*
X120700000Y-66800000I-50000J0D01*
G01*
X119500000Y-66800000D01*
G75*
G02*
X119450000Y-66750000I0J50000D01*
G01*
X119450000Y-65350000D01*
G75*
G02*
X119500000Y-65300000I50000J0D01*
G01*
G37*
G36*
G01*
X119500000Y-63100000D02*
X120700000Y-63100000D01*
G75*
G02*
X120750000Y-63150000I0J-50000D01*
G01*
X120750000Y-64550000D01*
G75*
G02*
X120700000Y-64600000I-50000J0D01*
G01*
X119500000Y-64600000D01*
G75*
G02*
X119450000Y-64550000I0J50000D01*
G01*
X119450000Y-63150000D01*
G75*
G02*
X119500000Y-63100000I50000J0D01*
G01*
G37*
G36*
G01*
X121100000Y-65300000D02*
X122300000Y-65300000D01*
G75*
G02*
X122350000Y-65350000I0J-50000D01*
G01*
X122350000Y-66750000D01*
G75*
G02*
X122300000Y-66800000I-50000J0D01*
G01*
X121100000Y-66800000D01*
G75*
G02*
X121050000Y-66750000I0J50000D01*
G01*
X121050000Y-65350000D01*
G75*
G02*
X121100000Y-65300000I50000J0D01*
G01*
G37*
G36*
G01*
X121100000Y-63100000D02*
X122300000Y-63100000D01*
G75*
G02*
X122350000Y-63150000I0J-50000D01*
G01*
X122350000Y-64550000D01*
G75*
G02*
X122300000Y-64600000I-50000J0D01*
G01*
X121100000Y-64600000D01*
G75*
G02*
X121050000Y-64550000I0J50000D01*
G01*
X121050000Y-63150000D01*
G75*
G02*
X121100000Y-63100000I50000J0D01*
G01*
G37*
%TD*%
%TO.C,U3*%
G36*
G01*
X78550000Y-45250000D02*
X78550000Y-41450000D01*
G75*
G02*
X78600000Y-41400000I50000J0D01*
G01*
X80600000Y-41400000D01*
G75*
G02*
X80650000Y-41450000I0J-50000D01*
G01*
X80650000Y-45250000D01*
G75*
G02*
X80600000Y-45300000I-50000J0D01*
G01*
X78600000Y-45300000D01*
G75*
G02*
X78550000Y-45250000I0J50000D01*
G01*
G37*
G36*
G01*
X72250000Y-44100000D02*
X72250000Y-42600000D01*
G75*
G02*
X72300000Y-42550000I50000J0D01*
G01*
X74300000Y-42550000D01*
G75*
G02*
X74350000Y-42600000I0J-50000D01*
G01*
X74350000Y-44100000D01*
G75*
G02*
X74300000Y-44150000I-50000J0D01*
G01*
X72300000Y-44150000D01*
G75*
G02*
X72250000Y-44100000I0J50000D01*
G01*
G37*
G36*
G01*
X72250000Y-46400000D02*
X72250000Y-44900000D01*
G75*
G02*
X72300000Y-44850000I50000J0D01*
G01*
X74300000Y-44850000D01*
G75*
G02*
X74350000Y-44900000I0J-50000D01*
G01*
X74350000Y-46400000D01*
G75*
G02*
X74300000Y-46450000I-50000J0D01*
G01*
X72300000Y-46450000D01*
G75*
G02*
X72250000Y-46400000I0J50000D01*
G01*
G37*
G36*
G01*
X72250000Y-41800000D02*
X72250000Y-40300000D01*
G75*
G02*
X72300000Y-40250000I50000J0D01*
G01*
X74300000Y-40250000D01*
G75*
G02*
X74350000Y-40300000I0J-50000D01*
G01*
X74350000Y-41800000D01*
G75*
G02*
X74300000Y-41850000I-50000J0D01*
G01*
X72300000Y-41850000D01*
G75*
G02*
X72250000Y-41800000I0J50000D01*
G01*
G37*
%TD*%
%TO.C,U2*%
G36*
G01*
X54425000Y-36475000D02*
X53975000Y-36475000D01*
G75*
G02*
X53925000Y-36425000I0J50000D01*
G01*
X53925000Y-34675000D01*
G75*
G02*
X53975000Y-34625000I50000J0D01*
G01*
X54425000Y-34625000D01*
G75*
G02*
X54475000Y-34675000I0J-50000D01*
G01*
X54475000Y-36425000D01*
G75*
G02*
X54425000Y-36475000I-50000J0D01*
G01*
G37*
G36*
G01*
X55075000Y-36475000D02*
X54625000Y-36475000D01*
G75*
G02*
X54575000Y-36425000I0J50000D01*
G01*
X54575000Y-34675000D01*
G75*
G02*
X54625000Y-34625000I50000J0D01*
G01*
X55075000Y-34625000D01*
G75*
G02*
X55125000Y-34675000I0J-50000D01*
G01*
X55125000Y-36425000D01*
G75*
G02*
X55075000Y-36475000I-50000J0D01*
G01*
G37*
G36*
G01*
X55725000Y-36475000D02*
X55275000Y-36475000D01*
G75*
G02*
X55225000Y-36425000I0J50000D01*
G01*
X55225000Y-34675000D01*
G75*
G02*
X55275000Y-34625000I50000J0D01*
G01*
X55725000Y-34625000D01*
G75*
G02*
X55775000Y-34675000I0J-50000D01*
G01*
X55775000Y-36425000D01*
G75*
G02*
X55725000Y-36475000I-50000J0D01*
G01*
G37*
G36*
G01*
X56375000Y-36475000D02*
X55925000Y-36475000D01*
G75*
G02*
X55875000Y-36425000I0J50000D01*
G01*
X55875000Y-34675000D01*
G75*
G02*
X55925000Y-34625000I50000J0D01*
G01*
X56375000Y-34625000D01*
G75*
G02*
X56425000Y-34675000I0J-50000D01*
G01*
X56425000Y-36425000D01*
G75*
G02*
X56375000Y-36475000I-50000J0D01*
G01*
G37*
G36*
G01*
X57025000Y-36475000D02*
X56575000Y-36475000D01*
G75*
G02*
X56525000Y-36425000I0J50000D01*
G01*
X56525000Y-34675000D01*
G75*
G02*
X56575000Y-34625000I50000J0D01*
G01*
X57025000Y-34625000D01*
G75*
G02*
X57075000Y-34675000I0J-50000D01*
G01*
X57075000Y-36425000D01*
G75*
G02*
X57025000Y-36475000I-50000J0D01*
G01*
G37*
G36*
G01*
X57675000Y-36475000D02*
X57225000Y-36475000D01*
G75*
G02*
X57175000Y-36425000I0J50000D01*
G01*
X57175000Y-34675000D01*
G75*
G02*
X57225000Y-34625000I50000J0D01*
G01*
X57675000Y-34625000D01*
G75*
G02*
X57725000Y-34675000I0J-50000D01*
G01*
X57725000Y-36425000D01*
G75*
G02*
X57675000Y-36475000I-50000J0D01*
G01*
G37*
G36*
G01*
X58325000Y-36475000D02*
X57875000Y-36475000D01*
G75*
G02*
X57825000Y-36425000I0J50000D01*
G01*
X57825000Y-34675000D01*
G75*
G02*
X57875000Y-34625000I50000J0D01*
G01*
X58325000Y-34625000D01*
G75*
G02*
X58375000Y-34675000I0J-50000D01*
G01*
X58375000Y-36425000D01*
G75*
G02*
X58325000Y-36475000I-50000J0D01*
G01*
G37*
G36*
G01*
X58975000Y-36475000D02*
X58525000Y-36475000D01*
G75*
G02*
X58475000Y-36425000I0J50000D01*
G01*
X58475000Y-34675000D01*
G75*
G02*
X58525000Y-34625000I50000J0D01*
G01*
X58975000Y-34625000D01*
G75*
G02*
X59025000Y-34675000I0J-50000D01*
G01*
X59025000Y-36425000D01*
G75*
G02*
X58975000Y-36475000I-50000J0D01*
G01*
G37*
G36*
G01*
X59625000Y-36475000D02*
X59175000Y-36475000D01*
G75*
G02*
X59125000Y-36425000I0J50000D01*
G01*
X59125000Y-34675000D01*
G75*
G02*
X59175000Y-34625000I50000J0D01*
G01*
X59625000Y-34625000D01*
G75*
G02*
X59675000Y-34675000I0J-50000D01*
G01*
X59675000Y-36425000D01*
G75*
G02*
X59625000Y-36475000I-50000J0D01*
G01*
G37*
G36*
G01*
X60275000Y-36475000D02*
X59825000Y-36475000D01*
G75*
G02*
X59775000Y-36425000I0J50000D01*
G01*
X59775000Y-34675000D01*
G75*
G02*
X59825000Y-34625000I50000J0D01*
G01*
X60275000Y-34625000D01*
G75*
G02*
X60325000Y-34675000I0J-50000D01*
G01*
X60325000Y-36425000D01*
G75*
G02*
X60275000Y-36475000I-50000J0D01*
G01*
G37*
G36*
G01*
X60925000Y-36475000D02*
X60475000Y-36475000D01*
G75*
G02*
X60425000Y-36425000I0J50000D01*
G01*
X60425000Y-34675000D01*
G75*
G02*
X60475000Y-34625000I50000J0D01*
G01*
X60925000Y-34625000D01*
G75*
G02*
X60975000Y-34675000I0J-50000D01*
G01*
X60975000Y-36425000D01*
G75*
G02*
X60925000Y-36475000I-50000J0D01*
G01*
G37*
G36*
G01*
X61575000Y-36475000D02*
X61125000Y-36475000D01*
G75*
G02*
X61075000Y-36425000I0J50000D01*
G01*
X61075000Y-34675000D01*
G75*
G02*
X61125000Y-34625000I50000J0D01*
G01*
X61575000Y-34625000D01*
G75*
G02*
X61625000Y-34675000I0J-50000D01*
G01*
X61625000Y-36425000D01*
G75*
G02*
X61575000Y-36475000I-50000J0D01*
G01*
G37*
G36*
G01*
X62225000Y-36475000D02*
X61775000Y-36475000D01*
G75*
G02*
X61725000Y-36425000I0J50000D01*
G01*
X61725000Y-34675000D01*
G75*
G02*
X61775000Y-34625000I50000J0D01*
G01*
X62225000Y-34625000D01*
G75*
G02*
X62275000Y-34675000I0J-50000D01*
G01*
X62275000Y-36425000D01*
G75*
G02*
X62225000Y-36475000I-50000J0D01*
G01*
G37*
G36*
G01*
X62875000Y-36475000D02*
X62425000Y-36475000D01*
G75*
G02*
X62375000Y-36425000I0J50000D01*
G01*
X62375000Y-34675000D01*
G75*
G02*
X62425000Y-34625000I50000J0D01*
G01*
X62875000Y-34625000D01*
G75*
G02*
X62925000Y-34675000I0J-50000D01*
G01*
X62925000Y-36425000D01*
G75*
G02*
X62875000Y-36475000I-50000J0D01*
G01*
G37*
G36*
G01*
X62875000Y-29275000D02*
X62425000Y-29275000D01*
G75*
G02*
X62375000Y-29225000I0J50000D01*
G01*
X62375000Y-27475000D01*
G75*
G02*
X62425000Y-27425000I50000J0D01*
G01*
X62875000Y-27425000D01*
G75*
G02*
X62925000Y-27475000I0J-50000D01*
G01*
X62925000Y-29225000D01*
G75*
G02*
X62875000Y-29275000I-50000J0D01*
G01*
G37*
G36*
G01*
X62225000Y-29275000D02*
X61775000Y-29275000D01*
G75*
G02*
X61725000Y-29225000I0J50000D01*
G01*
X61725000Y-27475000D01*
G75*
G02*
X61775000Y-27425000I50000J0D01*
G01*
X62225000Y-27425000D01*
G75*
G02*
X62275000Y-27475000I0J-50000D01*
G01*
X62275000Y-29225000D01*
G75*
G02*
X62225000Y-29275000I-50000J0D01*
G01*
G37*
G36*
G01*
X61575000Y-29275000D02*
X61125000Y-29275000D01*
G75*
G02*
X61075000Y-29225000I0J50000D01*
G01*
X61075000Y-27475000D01*
G75*
G02*
X61125000Y-27425000I50000J0D01*
G01*
X61575000Y-27425000D01*
G75*
G02*
X61625000Y-27475000I0J-50000D01*
G01*
X61625000Y-29225000D01*
G75*
G02*
X61575000Y-29275000I-50000J0D01*
G01*
G37*
G36*
G01*
X60925000Y-29275000D02*
X60475000Y-29275000D01*
G75*
G02*
X60425000Y-29225000I0J50000D01*
G01*
X60425000Y-27475000D01*
G75*
G02*
X60475000Y-27425000I50000J0D01*
G01*
X60925000Y-27425000D01*
G75*
G02*
X60975000Y-27475000I0J-50000D01*
G01*
X60975000Y-29225000D01*
G75*
G02*
X60925000Y-29275000I-50000J0D01*
G01*
G37*
G36*
G01*
X60275000Y-29275000D02*
X59825000Y-29275000D01*
G75*
G02*
X59775000Y-29225000I0J50000D01*
G01*
X59775000Y-27475000D01*
G75*
G02*
X59825000Y-27425000I50000J0D01*
G01*
X60275000Y-27425000D01*
G75*
G02*
X60325000Y-27475000I0J-50000D01*
G01*
X60325000Y-29225000D01*
G75*
G02*
X60275000Y-29275000I-50000J0D01*
G01*
G37*
G36*
G01*
X59625000Y-29275000D02*
X59175000Y-29275000D01*
G75*
G02*
X59125000Y-29225000I0J50000D01*
G01*
X59125000Y-27475000D01*
G75*
G02*
X59175000Y-27425000I50000J0D01*
G01*
X59625000Y-27425000D01*
G75*
G02*
X59675000Y-27475000I0J-50000D01*
G01*
X59675000Y-29225000D01*
G75*
G02*
X59625000Y-29275000I-50000J0D01*
G01*
G37*
G36*
G01*
X58975000Y-29275000D02*
X58525000Y-29275000D01*
G75*
G02*
X58475000Y-29225000I0J50000D01*
G01*
X58475000Y-27475000D01*
G75*
G02*
X58525000Y-27425000I50000J0D01*
G01*
X58975000Y-27425000D01*
G75*
G02*
X59025000Y-27475000I0J-50000D01*
G01*
X59025000Y-29225000D01*
G75*
G02*
X58975000Y-29275000I-50000J0D01*
G01*
G37*
G36*
G01*
X58325000Y-29275000D02*
X57875000Y-29275000D01*
G75*
G02*
X57825000Y-29225000I0J50000D01*
G01*
X57825000Y-27475000D01*
G75*
G02*
X57875000Y-27425000I50000J0D01*
G01*
X58325000Y-27425000D01*
G75*
G02*
X58375000Y-27475000I0J-50000D01*
G01*
X58375000Y-29225000D01*
G75*
G02*
X58325000Y-29275000I-50000J0D01*
G01*
G37*
G36*
G01*
X57675000Y-29275000D02*
X57225000Y-29275000D01*
G75*
G02*
X57175000Y-29225000I0J50000D01*
G01*
X57175000Y-27475000D01*
G75*
G02*
X57225000Y-27425000I50000J0D01*
G01*
X57675000Y-27425000D01*
G75*
G02*
X57725000Y-27475000I0J-50000D01*
G01*
X57725000Y-29225000D01*
G75*
G02*
X57675000Y-29275000I-50000J0D01*
G01*
G37*
G36*
G01*
X57025000Y-29275000D02*
X56575000Y-29275000D01*
G75*
G02*
X56525000Y-29225000I0J50000D01*
G01*
X56525000Y-27475000D01*
G75*
G02*
X56575000Y-27425000I50000J0D01*
G01*
X57025000Y-27425000D01*
G75*
G02*
X57075000Y-27475000I0J-50000D01*
G01*
X57075000Y-29225000D01*
G75*
G02*
X57025000Y-29275000I-50000J0D01*
G01*
G37*
G36*
G01*
X56375000Y-29275000D02*
X55925000Y-29275000D01*
G75*
G02*
X55875000Y-29225000I0J50000D01*
G01*
X55875000Y-27475000D01*
G75*
G02*
X55925000Y-27425000I50000J0D01*
G01*
X56375000Y-27425000D01*
G75*
G02*
X56425000Y-27475000I0J-50000D01*
G01*
X56425000Y-29225000D01*
G75*
G02*
X56375000Y-29275000I-50000J0D01*
G01*
G37*
G36*
G01*
X55725000Y-29275000D02*
X55275000Y-29275000D01*
G75*
G02*
X55225000Y-29225000I0J50000D01*
G01*
X55225000Y-27475000D01*
G75*
G02*
X55275000Y-27425000I50000J0D01*
G01*
X55725000Y-27425000D01*
G75*
G02*
X55775000Y-27475000I0J-50000D01*
G01*
X55775000Y-29225000D01*
G75*
G02*
X55725000Y-29275000I-50000J0D01*
G01*
G37*
G36*
G01*
X55075000Y-29275000D02*
X54625000Y-29275000D01*
G75*
G02*
X54575000Y-29225000I0J50000D01*
G01*
X54575000Y-27475000D01*
G75*
G02*
X54625000Y-27425000I50000J0D01*
G01*
X55075000Y-27425000D01*
G75*
G02*
X55125000Y-27475000I0J-50000D01*
G01*
X55125000Y-29225000D01*
G75*
G02*
X55075000Y-29275000I-50000J0D01*
G01*
G37*
G36*
G01*
X54425000Y-29275000D02*
X53975000Y-29275000D01*
G75*
G02*
X53925000Y-29225000I0J50000D01*
G01*
X53925000Y-27475000D01*
G75*
G02*
X53975000Y-27425000I50000J0D01*
G01*
X54425000Y-27425000D01*
G75*
G02*
X54475000Y-27475000I0J-50000D01*
G01*
X54475000Y-29225000D01*
G75*
G02*
X54425000Y-29275000I-50000J0D01*
G01*
G37*
%TD*%
%TO.C,U1*%
G36*
G01*
X118500000Y-72673400D02*
X118500000Y-72973400D01*
G75*
G02*
X118350000Y-73123400I-150000J0D01*
G01*
X117050000Y-73123400D01*
G75*
G02*
X116900000Y-72973400I0J150000D01*
G01*
X116900000Y-72673400D01*
G75*
G02*
X117050000Y-72523400I150000J0D01*
G01*
X118350000Y-72523400D01*
G75*
G02*
X118500000Y-72673400I0J-150000D01*
G01*
G37*
G36*
G01*
X118500000Y-71873400D02*
X118500000Y-72173400D01*
G75*
G02*
X118350000Y-72323400I-150000J0D01*
G01*
X117050000Y-72323400D01*
G75*
G02*
X116900000Y-72173400I0J150000D01*
G01*
X116900000Y-71873400D01*
G75*
G02*
X117050000Y-71723400I150000J0D01*
G01*
X118350000Y-71723400D01*
G75*
G02*
X118500000Y-71873400I0J-150000D01*
G01*
G37*
G36*
G01*
X118500000Y-71073400D02*
X118500000Y-71373400D01*
G75*
G02*
X118350000Y-71523400I-150000J0D01*
G01*
X117050000Y-71523400D01*
G75*
G02*
X116900000Y-71373400I0J150000D01*
G01*
X116900000Y-71073400D01*
G75*
G02*
X117050000Y-70923400I150000J0D01*
G01*
X118350000Y-70923400D01*
G75*
G02*
X118500000Y-71073400I0J-150000D01*
G01*
G37*
G36*
G01*
X118500000Y-70273400D02*
X118500000Y-70573400D01*
G75*
G02*
X118350000Y-70723400I-150000J0D01*
G01*
X117050000Y-70723400D01*
G75*
G02*
X116900000Y-70573400I0J150000D01*
G01*
X116900000Y-70273400D01*
G75*
G02*
X117050000Y-70123400I150000J0D01*
G01*
X118350000Y-70123400D01*
G75*
G02*
X118500000Y-70273400I0J-150000D01*
G01*
G37*
G36*
G01*
X118500000Y-69473400D02*
X118500000Y-69773400D01*
G75*
G02*
X118350000Y-69923400I-150000J0D01*
G01*
X117050000Y-69923400D01*
G75*
G02*
X116900000Y-69773400I0J150000D01*
G01*
X116900000Y-69473400D01*
G75*
G02*
X117050000Y-69323400I150000J0D01*
G01*
X118350000Y-69323400D01*
G75*
G02*
X118500000Y-69473400I0J-150000D01*
G01*
G37*
G36*
G01*
X118500000Y-68673400D02*
X118500000Y-68973400D01*
G75*
G02*
X118350000Y-69123400I-150000J0D01*
G01*
X117050000Y-69123400D01*
G75*
G02*
X116900000Y-68973400I0J150000D01*
G01*
X116900000Y-68673400D01*
G75*
G02*
X117050000Y-68523400I150000J0D01*
G01*
X118350000Y-68523400D01*
G75*
G02*
X118500000Y-68673400I0J-150000D01*
G01*
G37*
G36*
G01*
X118500000Y-67873400D02*
X118500000Y-68173400D01*
G75*
G02*
X118350000Y-68323400I-150000J0D01*
G01*
X117050000Y-68323400D01*
G75*
G02*
X116900000Y-68173400I0J150000D01*
G01*
X116900000Y-67873400D01*
G75*
G02*
X117050000Y-67723400I150000J0D01*
G01*
X118350000Y-67723400D01*
G75*
G02*
X118500000Y-67873400I0J-150000D01*
G01*
G37*
G36*
G01*
X118500000Y-67073400D02*
X118500000Y-67373400D01*
G75*
G02*
X118350000Y-67523400I-150000J0D01*
G01*
X117050000Y-67523400D01*
G75*
G02*
X116900000Y-67373400I0J150000D01*
G01*
X116900000Y-67073400D01*
G75*
G02*
X117050000Y-66923400I150000J0D01*
G01*
X118350000Y-66923400D01*
G75*
G02*
X118500000Y-67073400I0J-150000D01*
G01*
G37*
G36*
G01*
X116625000Y-65198400D02*
X116625000Y-66498400D01*
G75*
G02*
X116475000Y-66648400I-150000J0D01*
G01*
X116175000Y-66648400D01*
G75*
G02*
X116025000Y-66498400I0J150000D01*
G01*
X116025000Y-65198400D01*
G75*
G02*
X116175000Y-65048400I150000J0D01*
G01*
X116475000Y-65048400D01*
G75*
G02*
X116625000Y-65198400I0J-150000D01*
G01*
G37*
G36*
G01*
X115825000Y-65198400D02*
X115825000Y-66498400D01*
G75*
G02*
X115675000Y-66648400I-150000J0D01*
G01*
X115375000Y-66648400D01*
G75*
G02*
X115225000Y-66498400I0J150000D01*
G01*
X115225000Y-65198400D01*
G75*
G02*
X115375000Y-65048400I150000J0D01*
G01*
X115675000Y-65048400D01*
G75*
G02*
X115825000Y-65198400I0J-150000D01*
G01*
G37*
G36*
G01*
X115025000Y-65198400D02*
X115025000Y-66498400D01*
G75*
G02*
X114875000Y-66648400I-150000J0D01*
G01*
X114575000Y-66648400D01*
G75*
G02*
X114425000Y-66498400I0J150000D01*
G01*
X114425000Y-65198400D01*
G75*
G02*
X114575000Y-65048400I150000J0D01*
G01*
X114875000Y-65048400D01*
G75*
G02*
X115025000Y-65198400I0J-150000D01*
G01*
G37*
G36*
G01*
X114225000Y-65198400D02*
X114225000Y-66498400D01*
G75*
G02*
X114075000Y-66648400I-150000J0D01*
G01*
X113775000Y-66648400D01*
G75*
G02*
X113625000Y-66498400I0J150000D01*
G01*
X113625000Y-65198400D01*
G75*
G02*
X113775000Y-65048400I150000J0D01*
G01*
X114075000Y-65048400D01*
G75*
G02*
X114225000Y-65198400I0J-150000D01*
G01*
G37*
G36*
G01*
X113425000Y-65198400D02*
X113425000Y-66498400D01*
G75*
G02*
X113275000Y-66648400I-150000J0D01*
G01*
X112975000Y-66648400D01*
G75*
G02*
X112825000Y-66498400I0J150000D01*
G01*
X112825000Y-65198400D01*
G75*
G02*
X112975000Y-65048400I150000J0D01*
G01*
X113275000Y-65048400D01*
G75*
G02*
X113425000Y-65198400I0J-150000D01*
G01*
G37*
G36*
G01*
X112625000Y-65198400D02*
X112625000Y-66498400D01*
G75*
G02*
X112475000Y-66648400I-150000J0D01*
G01*
X112175000Y-66648400D01*
G75*
G02*
X112025000Y-66498400I0J150000D01*
G01*
X112025000Y-65198400D01*
G75*
G02*
X112175000Y-65048400I150000J0D01*
G01*
X112475000Y-65048400D01*
G75*
G02*
X112625000Y-65198400I0J-150000D01*
G01*
G37*
G36*
G01*
X111825000Y-65198400D02*
X111825000Y-66498400D01*
G75*
G02*
X111675000Y-66648400I-150000J0D01*
G01*
X111375000Y-66648400D01*
G75*
G02*
X111225000Y-66498400I0J150000D01*
G01*
X111225000Y-65198400D01*
G75*
G02*
X111375000Y-65048400I150000J0D01*
G01*
X111675000Y-65048400D01*
G75*
G02*
X111825000Y-65198400I0J-150000D01*
G01*
G37*
G36*
G01*
X111025000Y-65198400D02*
X111025000Y-66498400D01*
G75*
G02*
X110875000Y-66648400I-150000J0D01*
G01*
X110575000Y-66648400D01*
G75*
G02*
X110425000Y-66498400I0J150000D01*
G01*
X110425000Y-65198400D01*
G75*
G02*
X110575000Y-65048400I150000J0D01*
G01*
X110875000Y-65048400D01*
G75*
G02*
X111025000Y-65198400I0J-150000D01*
G01*
G37*
G36*
G01*
X110150000Y-67073400D02*
X110150000Y-67373400D01*
G75*
G02*
X110000000Y-67523400I-150000J0D01*
G01*
X108700000Y-67523400D01*
G75*
G02*
X108550000Y-67373400I0J150000D01*
G01*
X108550000Y-67073400D01*
G75*
G02*
X108700000Y-66923400I150000J0D01*
G01*
X110000000Y-66923400D01*
G75*
G02*
X110150000Y-67073400I0J-150000D01*
G01*
G37*
G36*
G01*
X110150000Y-67873400D02*
X110150000Y-68173400D01*
G75*
G02*
X110000000Y-68323400I-150000J0D01*
G01*
X108700000Y-68323400D01*
G75*
G02*
X108550000Y-68173400I0J150000D01*
G01*
X108550000Y-67873400D01*
G75*
G02*
X108700000Y-67723400I150000J0D01*
G01*
X110000000Y-67723400D01*
G75*
G02*
X110150000Y-67873400I0J-150000D01*
G01*
G37*
G36*
G01*
X110150000Y-68673400D02*
X110150000Y-68973400D01*
G75*
G02*
X110000000Y-69123400I-150000J0D01*
G01*
X108700000Y-69123400D01*
G75*
G02*
X108550000Y-68973400I0J150000D01*
G01*
X108550000Y-68673400D01*
G75*
G02*
X108700000Y-68523400I150000J0D01*
G01*
X110000000Y-68523400D01*
G75*
G02*
X110150000Y-68673400I0J-150000D01*
G01*
G37*
G36*
G01*
X110150000Y-69473400D02*
X110150000Y-69773400D01*
G75*
G02*
X110000000Y-69923400I-150000J0D01*
G01*
X108700000Y-69923400D01*
G75*
G02*
X108550000Y-69773400I0J150000D01*
G01*
X108550000Y-69473400D01*
G75*
G02*
X108700000Y-69323400I150000J0D01*
G01*
X110000000Y-69323400D01*
G75*
G02*
X110150000Y-69473400I0J-150000D01*
G01*
G37*
G36*
G01*
X110150000Y-70273400D02*
X110150000Y-70573400D01*
G75*
G02*
X110000000Y-70723400I-150000J0D01*
G01*
X108700000Y-70723400D01*
G75*
G02*
X108550000Y-70573400I0J150000D01*
G01*
X108550000Y-70273400D01*
G75*
G02*
X108700000Y-70123400I150000J0D01*
G01*
X110000000Y-70123400D01*
G75*
G02*
X110150000Y-70273400I0J-150000D01*
G01*
G37*
G36*
G01*
X110150000Y-71073400D02*
X110150000Y-71373400D01*
G75*
G02*
X110000000Y-71523400I-150000J0D01*
G01*
X108700000Y-71523400D01*
G75*
G02*
X108550000Y-71373400I0J150000D01*
G01*
X108550000Y-71073400D01*
G75*
G02*
X108700000Y-70923400I150000J0D01*
G01*
X110000000Y-70923400D01*
G75*
G02*
X110150000Y-71073400I0J-150000D01*
G01*
G37*
G36*
G01*
X110150000Y-71873400D02*
X110150000Y-72173400D01*
G75*
G02*
X110000000Y-72323400I-150000J0D01*
G01*
X108700000Y-72323400D01*
G75*
G02*
X108550000Y-72173400I0J150000D01*
G01*
X108550000Y-71873400D01*
G75*
G02*
X108700000Y-71723400I150000J0D01*
G01*
X110000000Y-71723400D01*
G75*
G02*
X110150000Y-71873400I0J-150000D01*
G01*
G37*
G36*
G01*
X110150000Y-72673400D02*
X110150000Y-72973400D01*
G75*
G02*
X110000000Y-73123400I-150000J0D01*
G01*
X108700000Y-73123400D01*
G75*
G02*
X108550000Y-72973400I0J150000D01*
G01*
X108550000Y-72673400D01*
G75*
G02*
X108700000Y-72523400I150000J0D01*
G01*
X110000000Y-72523400D01*
G75*
G02*
X110150000Y-72673400I0J-150000D01*
G01*
G37*
G36*
G01*
X111025000Y-73548400D02*
X111025000Y-74848400D01*
G75*
G02*
X110875000Y-74998400I-150000J0D01*
G01*
X110575000Y-74998400D01*
G75*
G02*
X110425000Y-74848400I0J150000D01*
G01*
X110425000Y-73548400D01*
G75*
G02*
X110575000Y-73398400I150000J0D01*
G01*
X110875000Y-73398400D01*
G75*
G02*
X111025000Y-73548400I0J-150000D01*
G01*
G37*
G36*
G01*
X111825000Y-73548400D02*
X111825000Y-74848400D01*
G75*
G02*
X111675000Y-74998400I-150000J0D01*
G01*
X111375000Y-74998400D01*
G75*
G02*
X111225000Y-74848400I0J150000D01*
G01*
X111225000Y-73548400D01*
G75*
G02*
X111375000Y-73398400I150000J0D01*
G01*
X111675000Y-73398400D01*
G75*
G02*
X111825000Y-73548400I0J-150000D01*
G01*
G37*
G36*
G01*
X112625000Y-73548400D02*
X112625000Y-74848400D01*
G75*
G02*
X112475000Y-74998400I-150000J0D01*
G01*
X112175000Y-74998400D01*
G75*
G02*
X112025000Y-74848400I0J150000D01*
G01*
X112025000Y-73548400D01*
G75*
G02*
X112175000Y-73398400I150000J0D01*
G01*
X112475000Y-73398400D01*
G75*
G02*
X112625000Y-73548400I0J-150000D01*
G01*
G37*
G36*
G01*
X113425000Y-73548400D02*
X113425000Y-74848400D01*
G75*
G02*
X113275000Y-74998400I-150000J0D01*
G01*
X112975000Y-74998400D01*
G75*
G02*
X112825000Y-74848400I0J150000D01*
G01*
X112825000Y-73548400D01*
G75*
G02*
X112975000Y-73398400I150000J0D01*
G01*
X113275000Y-73398400D01*
G75*
G02*
X113425000Y-73548400I0J-150000D01*
G01*
G37*
G36*
G01*
X114225000Y-73548400D02*
X114225000Y-74848400D01*
G75*
G02*
X114075000Y-74998400I-150000J0D01*
G01*
X113775000Y-74998400D01*
G75*
G02*
X113625000Y-74848400I0J150000D01*
G01*
X113625000Y-73548400D01*
G75*
G02*
X113775000Y-73398400I150000J0D01*
G01*
X114075000Y-73398400D01*
G75*
G02*
X114225000Y-73548400I0J-150000D01*
G01*
G37*
G36*
G01*
X115025000Y-73548400D02*
X115025000Y-74848400D01*
G75*
G02*
X114875000Y-74998400I-150000J0D01*
G01*
X114575000Y-74998400D01*
G75*
G02*
X114425000Y-74848400I0J150000D01*
G01*
X114425000Y-73548400D01*
G75*
G02*
X114575000Y-73398400I150000J0D01*
G01*
X114875000Y-73398400D01*
G75*
G02*
X115025000Y-73548400I0J-150000D01*
G01*
G37*
G36*
G01*
X115825000Y-73548400D02*
X115825000Y-74848400D01*
G75*
G02*
X115675000Y-74998400I-150000J0D01*
G01*
X115375000Y-74998400D01*
G75*
G02*
X115225000Y-74848400I0J150000D01*
G01*
X115225000Y-73548400D01*
G75*
G02*
X115375000Y-73398400I150000J0D01*
G01*
X115675000Y-73398400D01*
G75*
G02*
X115825000Y-73548400I0J-150000D01*
G01*
G37*
G36*
G01*
X116625000Y-73548400D02*
X116625000Y-74848400D01*
G75*
G02*
X116475000Y-74998400I-150000J0D01*
G01*
X116175000Y-74998400D01*
G75*
G02*
X116025000Y-74848400I0J150000D01*
G01*
X116025000Y-73548400D01*
G75*
G02*
X116175000Y-73398400I150000J0D01*
G01*
X116475000Y-73398400D01*
G75*
G02*
X116625000Y-73548400I0J-150000D01*
G01*
G37*
%TD*%
%TO.C,TP6*%
G36*
G01*
X85550000Y-67100000D02*
X85550000Y-65600000D01*
G75*
G02*
X85600000Y-65550000I50000J0D01*
G01*
X88600000Y-65550000D01*
G75*
G02*
X88650000Y-65600000I0J-50000D01*
G01*
X88650000Y-67100000D01*
G75*
G02*
X88600000Y-67150000I-50000J0D01*
G01*
X85600000Y-67150000D01*
G75*
G02*
X85550000Y-67100000I0J50000D01*
G01*
G37*
%TD*%
%TO.C,TP3*%
G36*
G01*
X60300000Y-54600000D02*
X60300000Y-53100000D01*
G75*
G02*
X60350000Y-53050000I50000J0D01*
G01*
X63350000Y-53050000D01*
G75*
G02*
X63400000Y-53100000I0J-50000D01*
G01*
X63400000Y-54600000D01*
G75*
G02*
X63350000Y-54650000I-50000J0D01*
G01*
X60350000Y-54650000D01*
G75*
G02*
X60300000Y-54600000I0J50000D01*
G01*
G37*
%TD*%
%TO.C,TP5*%
G36*
G01*
X93300000Y-55600000D02*
X93300000Y-54100000D01*
G75*
G02*
X93350000Y-54050000I50000J0D01*
G01*
X96350000Y-54050000D01*
G75*
G02*
X96400000Y-54100000I0J-50000D01*
G01*
X96400000Y-55600000D01*
G75*
G02*
X96350000Y-55650000I-50000J0D01*
G01*
X93350000Y-55650000D01*
G75*
G02*
X93300000Y-55600000I0J50000D01*
G01*
G37*
%TD*%
%TO.C,TP9*%
G36*
G01*
X58300000Y-70600000D02*
X58300000Y-69100000D01*
G75*
G02*
X58350000Y-69050000I50000J0D01*
G01*
X61350000Y-69050000D01*
G75*
G02*
X61400000Y-69100000I0J-50000D01*
G01*
X61400000Y-70600000D01*
G75*
G02*
X61350000Y-70650000I-50000J0D01*
G01*
X58350000Y-70650000D01*
G75*
G02*
X58300000Y-70600000I0J50000D01*
G01*
G37*
%TD*%
%TO.C,TP4*%
G36*
G01*
X123150000Y-48600000D02*
X123150000Y-50100000D01*
G75*
G02*
X123100000Y-50150000I-50000J0D01*
G01*
X120100000Y-50150000D01*
G75*
G02*
X120050000Y-50100000I0J50000D01*
G01*
X120050000Y-48600000D01*
G75*
G02*
X120100000Y-48550000I50000J0D01*
G01*
X123100000Y-48550000D01*
G75*
G02*
X123150000Y-48600000I0J-50000D01*
G01*
G37*
%TD*%
%TO.C,RV2*%
G36*
G01*
X122200000Y-40780000D02*
X123800000Y-40780000D01*
G75*
G02*
X123850000Y-40830000I0J-50000D01*
G01*
X123850000Y-42830000D01*
G75*
G02*
X123800000Y-42880000I-50000J0D01*
G01*
X122200000Y-42880000D01*
G75*
G02*
X122150000Y-42830000I0J50000D01*
G01*
X122150000Y-40830000D01*
G75*
G02*
X122200000Y-40780000I50000J0D01*
G01*
G37*
G36*
G01*
X119300000Y-39860000D02*
X120900000Y-39860000D01*
G75*
G02*
X120950000Y-39910000I0J-50000D01*
G01*
X120950000Y-41210000D01*
G75*
G02*
X120900000Y-41260000I-50000J0D01*
G01*
X119300000Y-41260000D01*
G75*
G02*
X119250000Y-41210000I0J50000D01*
G01*
X119250000Y-39910000D01*
G75*
G02*
X119300000Y-39860000I50000J0D01*
G01*
G37*
G36*
G01*
X119300000Y-42400000D02*
X120900000Y-42400000D01*
G75*
G02*
X120950000Y-42450000I0J-50000D01*
G01*
X120950000Y-43750000D01*
G75*
G02*
X120900000Y-43800000I-50000J0D01*
G01*
X119300000Y-43800000D01*
G75*
G02*
X119250000Y-43750000I0J50000D01*
G01*
X119250000Y-42450000D01*
G75*
G02*
X119300000Y-42400000I50000J0D01*
G01*
G37*
%TD*%
%TO.C,RV1*%
G36*
G01*
X114300000Y-53900000D02*
X115900000Y-53900000D01*
G75*
G02*
X115950000Y-53950000I0J-50000D01*
G01*
X115950000Y-55250000D01*
G75*
G02*
X115900000Y-55300000I-50000J0D01*
G01*
X114300000Y-55300000D01*
G75*
G02*
X114250000Y-55250000I0J50000D01*
G01*
X114250000Y-53950000D01*
G75*
G02*
X114300000Y-53900000I50000J0D01*
G01*
G37*
G36*
G01*
X114300000Y-51360000D02*
X115900000Y-51360000D01*
G75*
G02*
X115950000Y-51410000I0J-50000D01*
G01*
X115950000Y-52710000D01*
G75*
G02*
X115900000Y-52760000I-50000J0D01*
G01*
X114300000Y-52760000D01*
G75*
G02*
X114250000Y-52710000I0J50000D01*
G01*
X114250000Y-51410000D01*
G75*
G02*
X114300000Y-51360000I50000J0D01*
G01*
G37*
G36*
G01*
X117200000Y-52280000D02*
X118800000Y-52280000D01*
G75*
G02*
X118850000Y-52330000I0J-50000D01*
G01*
X118850000Y-54330000D01*
G75*
G02*
X118800000Y-54380000I-50000J0D01*
G01*
X117200000Y-54380000D01*
G75*
G02*
X117150000Y-54330000I0J50000D01*
G01*
X117150000Y-52330000D01*
G75*
G02*
X117200000Y-52280000I50000J0D01*
G01*
G37*
%TD*%
%TO.C,R28*%
G36*
G01*
X57131250Y-69912500D02*
X56568750Y-69912500D01*
G75*
G02*
X56325000Y-69668750I0J243750D01*
G01*
X56325000Y-69181250D01*
G75*
G02*
X56568750Y-68937500I243750J0D01*
G01*
X57131250Y-68937500D01*
G75*
G02*
X57375000Y-69181250I0J-243750D01*
G01*
X57375000Y-69668750D01*
G75*
G02*
X57131250Y-69912500I-243750J0D01*
G01*
G37*
G36*
G01*
X57131250Y-68337500D02*
X56568750Y-68337500D01*
G75*
G02*
X56325000Y-68093750I0J243750D01*
G01*
X56325000Y-67606250D01*
G75*
G02*
X56568750Y-67362500I243750J0D01*
G01*
X57131250Y-67362500D01*
G75*
G02*
X57375000Y-67606250I0J-243750D01*
G01*
X57375000Y-68093750D01*
G75*
G02*
X57131250Y-68337500I-243750J0D01*
G01*
G37*
%TD*%
%TO.C,R27*%
G36*
G01*
X57131250Y-66662500D02*
X56568750Y-66662500D01*
G75*
G02*
X56325000Y-66418750I0J243750D01*
G01*
X56325000Y-65931250D01*
G75*
G02*
X56568750Y-65687500I243750J0D01*
G01*
X57131250Y-65687500D01*
G75*
G02*
X57375000Y-65931250I0J-243750D01*
G01*
X57375000Y-66418750D01*
G75*
G02*
X57131250Y-66662500I-243750J0D01*
G01*
G37*
G36*
G01*
X57131250Y-65087500D02*
X56568750Y-65087500D01*
G75*
G02*
X56325000Y-64843750I0J243750D01*
G01*
X56325000Y-64356250D01*
G75*
G02*
X56568750Y-64112500I243750J0D01*
G01*
X57131250Y-64112500D01*
G75*
G02*
X57375000Y-64356250I0J-243750D01*
G01*
X57375000Y-64843750D01*
G75*
G02*
X57131250Y-65087500I-243750J0D01*
G01*
G37*
%TD*%
%TO.C,R26*%
G36*
G01*
X57131250Y-63412500D02*
X56568750Y-63412500D01*
G75*
G02*
X56325000Y-63168750I0J243750D01*
G01*
X56325000Y-62681250D01*
G75*
G02*
X56568750Y-62437500I243750J0D01*
G01*
X57131250Y-62437500D01*
G75*
G02*
X57375000Y-62681250I0J-243750D01*
G01*
X57375000Y-63168750D01*
G75*
G02*
X57131250Y-63412500I-243750J0D01*
G01*
G37*
G36*
G01*
X57131250Y-61837500D02*
X56568750Y-61837500D01*
G75*
G02*
X56325000Y-61593750I0J243750D01*
G01*
X56325000Y-61106250D01*
G75*
G02*
X56568750Y-60862500I243750J0D01*
G01*
X57131250Y-60862500D01*
G75*
G02*
X57375000Y-61106250I0J-243750D01*
G01*
X57375000Y-61593750D01*
G75*
G02*
X57131250Y-61837500I-243750J0D01*
G01*
G37*
%TD*%
%TO.C,R25*%
G36*
G01*
X67825000Y-65631250D02*
X67825000Y-65068750D01*
G75*
G02*
X68068750Y-64825000I243750J0D01*
G01*
X68556250Y-64825000D01*
G75*
G02*
X68800000Y-65068750I0J-243750D01*
G01*
X68800000Y-65631250D01*
G75*
G02*
X68556250Y-65875000I-243750J0D01*
G01*
X68068750Y-65875000D01*
G75*
G02*
X67825000Y-65631250I0J243750D01*
G01*
G37*
G36*
G01*
X69400000Y-65631250D02*
X69400000Y-65068750D01*
G75*
G02*
X69643750Y-64825000I243750J0D01*
G01*
X70131250Y-64825000D01*
G75*
G02*
X70375000Y-65068750I0J-243750D01*
G01*
X70375000Y-65631250D01*
G75*
G02*
X70131250Y-65875000I-243750J0D01*
G01*
X69643750Y-65875000D01*
G75*
G02*
X69400000Y-65631250I0J243750D01*
G01*
G37*
%TD*%
%TO.C,R23*%
G36*
G01*
X70412500Y-66818750D02*
X70412500Y-67381250D01*
G75*
G02*
X70168750Y-67625000I-243750J0D01*
G01*
X69681250Y-67625000D01*
G75*
G02*
X69437500Y-67381250I0J243750D01*
G01*
X69437500Y-66818750D01*
G75*
G02*
X69681250Y-66575000I243750J0D01*
G01*
X70168750Y-66575000D01*
G75*
G02*
X70412500Y-66818750I0J-243750D01*
G01*
G37*
G36*
G01*
X68837500Y-66818750D02*
X68837500Y-67381250D01*
G75*
G02*
X68593750Y-67625000I-243750J0D01*
G01*
X68106250Y-67625000D01*
G75*
G02*
X67862500Y-67381250I0J243750D01*
G01*
X67862500Y-66818750D01*
G75*
G02*
X68106250Y-66575000I243750J0D01*
G01*
X68593750Y-66575000D01*
G75*
G02*
X68837500Y-66818750I0J-243750D01*
G01*
G37*
%TD*%
%TO.C,R24*%
G36*
G01*
X120362500Y-38381250D02*
X120362500Y-37818750D01*
G75*
G02*
X120606250Y-37575000I243750J0D01*
G01*
X121093750Y-37575000D01*
G75*
G02*
X121337500Y-37818750I0J-243750D01*
G01*
X121337500Y-38381250D01*
G75*
G02*
X121093750Y-38625000I-243750J0D01*
G01*
X120606250Y-38625000D01*
G75*
G02*
X120362500Y-38381250I0J243750D01*
G01*
G37*
G36*
G01*
X121937500Y-38381250D02*
X121937500Y-37818750D01*
G75*
G02*
X122181250Y-37575000I243750J0D01*
G01*
X122668750Y-37575000D01*
G75*
G02*
X122912500Y-37818750I0J-243750D01*
G01*
X122912500Y-38381250D01*
G75*
G02*
X122668750Y-38625000I-243750J0D01*
G01*
X122181250Y-38625000D01*
G75*
G02*
X121937500Y-38381250I0J243750D01*
G01*
G37*
%TD*%
%TO.C,R22*%
G36*
G01*
X98650000Y-49631250D02*
X98650000Y-49068750D01*
G75*
G02*
X98893750Y-48825000I243750J0D01*
G01*
X99381250Y-48825000D01*
G75*
G02*
X99625000Y-49068750I0J-243750D01*
G01*
X99625000Y-49631250D01*
G75*
G02*
X99381250Y-49875000I-243750J0D01*
G01*
X98893750Y-49875000D01*
G75*
G02*
X98650000Y-49631250I0J243750D01*
G01*
G37*
G36*
G01*
X97075000Y-49631250D02*
X97075000Y-49068750D01*
G75*
G02*
X97318750Y-48825000I243750J0D01*
G01*
X97806250Y-48825000D01*
G75*
G02*
X98050000Y-49068750I0J-243750D01*
G01*
X98050000Y-49631250D01*
G75*
G02*
X97806250Y-49875000I-243750J0D01*
G01*
X97318750Y-49875000D01*
G75*
G02*
X97075000Y-49631250I0J243750D01*
G01*
G37*
%TD*%
%TO.C,R21*%
G36*
G01*
X91662500Y-63318750D02*
X91662500Y-63881250D01*
G75*
G02*
X91418750Y-64125000I-243750J0D01*
G01*
X90931250Y-64125000D01*
G75*
G02*
X90687500Y-63881250I0J243750D01*
G01*
X90687500Y-63318750D01*
G75*
G02*
X90931250Y-63075000I243750J0D01*
G01*
X91418750Y-63075000D01*
G75*
G02*
X91662500Y-63318750I0J-243750D01*
G01*
G37*
G36*
G01*
X90087500Y-63318750D02*
X90087500Y-63881250D01*
G75*
G02*
X89843750Y-64125000I-243750J0D01*
G01*
X89356250Y-64125000D01*
G75*
G02*
X89112500Y-63881250I0J243750D01*
G01*
X89112500Y-63318750D01*
G75*
G02*
X89356250Y-63075000I243750J0D01*
G01*
X89843750Y-63075000D01*
G75*
G02*
X90087500Y-63318750I0J-243750D01*
G01*
G37*
%TD*%
%TO.C,R20*%
G36*
G01*
X90818750Y-55537500D02*
X91381250Y-55537500D01*
G75*
G02*
X91625000Y-55781250I0J-243750D01*
G01*
X91625000Y-56268750D01*
G75*
G02*
X91381250Y-56512500I-243750J0D01*
G01*
X90818750Y-56512500D01*
G75*
G02*
X90575000Y-56268750I0J243750D01*
G01*
X90575000Y-55781250D01*
G75*
G02*
X90818750Y-55537500I243750J0D01*
G01*
G37*
G36*
G01*
X90818750Y-57112500D02*
X91381250Y-57112500D01*
G75*
G02*
X91625000Y-57356250I0J-243750D01*
G01*
X91625000Y-57843750D01*
G75*
G02*
X91381250Y-58087500I-243750J0D01*
G01*
X90818750Y-58087500D01*
G75*
G02*
X90575000Y-57843750I0J243750D01*
G01*
X90575000Y-57356250D01*
G75*
G02*
X90818750Y-57112500I243750J0D01*
G01*
G37*
%TD*%
%TO.C,R19*%
G36*
G01*
X88818750Y-55537500D02*
X89381250Y-55537500D01*
G75*
G02*
X89625000Y-55781250I0J-243750D01*
G01*
X89625000Y-56268750D01*
G75*
G02*
X89381250Y-56512500I-243750J0D01*
G01*
X88818750Y-56512500D01*
G75*
G02*
X88575000Y-56268750I0J243750D01*
G01*
X88575000Y-55781250D01*
G75*
G02*
X88818750Y-55537500I243750J0D01*
G01*
G37*
G36*
G01*
X88818750Y-57112500D02*
X89381250Y-57112500D01*
G75*
G02*
X89625000Y-57356250I0J-243750D01*
G01*
X89625000Y-57843750D01*
G75*
G02*
X89381250Y-58087500I-243750J0D01*
G01*
X88818750Y-58087500D01*
G75*
G02*
X88575000Y-57843750I0J243750D01*
G01*
X88575000Y-57356250D01*
G75*
G02*
X88818750Y-57112500I243750J0D01*
G01*
G37*
%TD*%
%TO.C,R18*%
G36*
G01*
X102631250Y-43050000D02*
X102068750Y-43050000D01*
G75*
G02*
X101825000Y-42806250I0J243750D01*
G01*
X101825000Y-42318750D01*
G75*
G02*
X102068750Y-42075000I243750J0D01*
G01*
X102631250Y-42075000D01*
G75*
G02*
X102875000Y-42318750I0J-243750D01*
G01*
X102875000Y-42806250D01*
G75*
G02*
X102631250Y-43050000I-243750J0D01*
G01*
G37*
G36*
G01*
X102631250Y-44625000D02*
X102068750Y-44625000D01*
G75*
G02*
X101825000Y-44381250I0J243750D01*
G01*
X101825000Y-43893750D01*
G75*
G02*
X102068750Y-43650000I243750J0D01*
G01*
X102631250Y-43650000D01*
G75*
G02*
X102875000Y-43893750I0J-243750D01*
G01*
X102875000Y-44381250D01*
G75*
G02*
X102631250Y-44625000I-243750J0D01*
G01*
G37*
%TD*%
%TO.C,R17*%
G36*
G01*
X102631250Y-46300000D02*
X102068750Y-46300000D01*
G75*
G02*
X101825000Y-46056250I0J243750D01*
G01*
X101825000Y-45568750D01*
G75*
G02*
X102068750Y-45325000I243750J0D01*
G01*
X102631250Y-45325000D01*
G75*
G02*
X102875000Y-45568750I0J-243750D01*
G01*
X102875000Y-46056250D01*
G75*
G02*
X102631250Y-46300000I-243750J0D01*
G01*
G37*
G36*
G01*
X102631250Y-47875000D02*
X102068750Y-47875000D01*
G75*
G02*
X101825000Y-47631250I0J243750D01*
G01*
X101825000Y-47143750D01*
G75*
G02*
X102068750Y-46900000I243750J0D01*
G01*
X102631250Y-46900000D01*
G75*
G02*
X102875000Y-47143750I0J-243750D01*
G01*
X102875000Y-47631250D01*
G75*
G02*
X102631250Y-47875000I-243750J0D01*
G01*
G37*
%TD*%
%TO.C,R16*%
G36*
G01*
X104837500Y-50068750D02*
X104837500Y-50631250D01*
G75*
G02*
X104593750Y-50875000I-243750J0D01*
G01*
X104106250Y-50875000D01*
G75*
G02*
X103862500Y-50631250I0J243750D01*
G01*
X103862500Y-50068750D01*
G75*
G02*
X104106250Y-49825000I243750J0D01*
G01*
X104593750Y-49825000D01*
G75*
G02*
X104837500Y-50068750I0J-243750D01*
G01*
G37*
G36*
G01*
X106412500Y-50068750D02*
X106412500Y-50631250D01*
G75*
G02*
X106168750Y-50875000I-243750J0D01*
G01*
X105681250Y-50875000D01*
G75*
G02*
X105437500Y-50631250I0J243750D01*
G01*
X105437500Y-50068750D01*
G75*
G02*
X105681250Y-49825000I243750J0D01*
G01*
X106168750Y-49825000D01*
G75*
G02*
X106412500Y-50068750I0J-243750D01*
G01*
G37*
%TD*%
%TO.C,R15*%
G36*
G01*
X70287500Y-61131250D02*
X70287500Y-60568750D01*
G75*
G02*
X70531250Y-60325000I243750J0D01*
G01*
X71018750Y-60325000D01*
G75*
G02*
X71262500Y-60568750I0J-243750D01*
G01*
X71262500Y-61131250D01*
G75*
G02*
X71018750Y-61375000I-243750J0D01*
G01*
X70531250Y-61375000D01*
G75*
G02*
X70287500Y-61131250I0J243750D01*
G01*
G37*
G36*
G01*
X71862500Y-61131250D02*
X71862500Y-60568750D01*
G75*
G02*
X72106250Y-60325000I243750J0D01*
G01*
X72593750Y-60325000D01*
G75*
G02*
X72837500Y-60568750I0J-243750D01*
G01*
X72837500Y-61131250D01*
G75*
G02*
X72593750Y-61375000I-243750J0D01*
G01*
X72106250Y-61375000D01*
G75*
G02*
X71862500Y-61131250I0J243750D01*
G01*
G37*
%TD*%
%TO.C,R14*%
G36*
G01*
X78825000Y-65881250D02*
X78825000Y-65318750D01*
G75*
G02*
X79068750Y-65075000I243750J0D01*
G01*
X79556250Y-65075000D01*
G75*
G02*
X79800000Y-65318750I0J-243750D01*
G01*
X79800000Y-65881250D01*
G75*
G02*
X79556250Y-66125000I-243750J0D01*
G01*
X79068750Y-66125000D01*
G75*
G02*
X78825000Y-65881250I0J243750D01*
G01*
G37*
G36*
G01*
X80400000Y-65881250D02*
X80400000Y-65318750D01*
G75*
G02*
X80643750Y-65075000I243750J0D01*
G01*
X81131250Y-65075000D01*
G75*
G02*
X81375000Y-65318750I0J-243750D01*
G01*
X81375000Y-65881250D01*
G75*
G02*
X81131250Y-66125000I-243750J0D01*
G01*
X80643750Y-66125000D01*
G75*
G02*
X80400000Y-65881250I0J243750D01*
G01*
G37*
%TD*%
%TO.C,R13*%
G36*
G01*
X118631250Y-48337500D02*
X118068750Y-48337500D01*
G75*
G02*
X117825000Y-48093750I0J243750D01*
G01*
X117825000Y-47606250D01*
G75*
G02*
X118068750Y-47362500I243750J0D01*
G01*
X118631250Y-47362500D01*
G75*
G02*
X118875000Y-47606250I0J-243750D01*
G01*
X118875000Y-48093750D01*
G75*
G02*
X118631250Y-48337500I-243750J0D01*
G01*
G37*
G36*
G01*
X118631250Y-49912500D02*
X118068750Y-49912500D01*
G75*
G02*
X117825000Y-49668750I0J243750D01*
G01*
X117825000Y-49181250D01*
G75*
G02*
X118068750Y-48937500I243750J0D01*
G01*
X118631250Y-48937500D01*
G75*
G02*
X118875000Y-49181250I0J-243750D01*
G01*
X118875000Y-49668750D01*
G75*
G02*
X118631250Y-49912500I-243750J0D01*
G01*
G37*
%TD*%
%TO.C,R12*%
G36*
G01*
X104881250Y-53800000D02*
X104318750Y-53800000D01*
G75*
G02*
X104075000Y-53556250I0J243750D01*
G01*
X104075000Y-53068750D01*
G75*
G02*
X104318750Y-52825000I243750J0D01*
G01*
X104881250Y-52825000D01*
G75*
G02*
X105125000Y-53068750I0J-243750D01*
G01*
X105125000Y-53556250D01*
G75*
G02*
X104881250Y-53800000I-243750J0D01*
G01*
G37*
G36*
G01*
X104881250Y-55375000D02*
X104318750Y-55375000D01*
G75*
G02*
X104075000Y-55131250I0J243750D01*
G01*
X104075000Y-54643750D01*
G75*
G02*
X104318750Y-54400000I243750J0D01*
G01*
X104881250Y-54400000D01*
G75*
G02*
X105125000Y-54643750I0J-243750D01*
G01*
X105125000Y-55131250D01*
G75*
G02*
X104881250Y-55375000I-243750J0D01*
G01*
G37*
%TD*%
%TO.C,R11*%
G36*
G01*
X74631250Y-53412500D02*
X74068750Y-53412500D01*
G75*
G02*
X73825000Y-53168750I0J243750D01*
G01*
X73825000Y-52681250D01*
G75*
G02*
X74068750Y-52437500I243750J0D01*
G01*
X74631250Y-52437500D01*
G75*
G02*
X74875000Y-52681250I0J-243750D01*
G01*
X74875000Y-53168750D01*
G75*
G02*
X74631250Y-53412500I-243750J0D01*
G01*
G37*
G36*
G01*
X74631250Y-51837500D02*
X74068750Y-51837500D01*
G75*
G02*
X73825000Y-51593750I0J243750D01*
G01*
X73825000Y-51106250D01*
G75*
G02*
X74068750Y-50862500I243750J0D01*
G01*
X74631250Y-50862500D01*
G75*
G02*
X74875000Y-51106250I0J-243750D01*
G01*
X74875000Y-51593750D01*
G75*
G02*
X74631250Y-51837500I-243750J0D01*
G01*
G37*
%TD*%
%TO.C,R10*%
G36*
G01*
X107362500Y-55131250D02*
X107362500Y-54568750D01*
G75*
G02*
X107606250Y-54325000I243750J0D01*
G01*
X108093750Y-54325000D01*
G75*
G02*
X108337500Y-54568750I0J-243750D01*
G01*
X108337500Y-55131250D01*
G75*
G02*
X108093750Y-55375000I-243750J0D01*
G01*
X107606250Y-55375000D01*
G75*
G02*
X107362500Y-55131250I0J243750D01*
G01*
G37*
G36*
G01*
X105787500Y-55131250D02*
X105787500Y-54568750D01*
G75*
G02*
X106031250Y-54325000I243750J0D01*
G01*
X106518750Y-54325000D01*
G75*
G02*
X106762500Y-54568750I0J-243750D01*
G01*
X106762500Y-55131250D01*
G75*
G02*
X106518750Y-55375000I-243750J0D01*
G01*
X106031250Y-55375000D01*
G75*
G02*
X105787500Y-55131250I0J243750D01*
G01*
G37*
%TD*%
%TO.C,R9*%
G36*
G01*
X74068750Y-54287500D02*
X74631250Y-54287500D01*
G75*
G02*
X74875000Y-54531250I0J-243750D01*
G01*
X74875000Y-55018750D01*
G75*
G02*
X74631250Y-55262500I-243750J0D01*
G01*
X74068750Y-55262500D01*
G75*
G02*
X73825000Y-55018750I0J243750D01*
G01*
X73825000Y-54531250D01*
G75*
G02*
X74068750Y-54287500I243750J0D01*
G01*
G37*
G36*
G01*
X74068750Y-55862500D02*
X74631250Y-55862500D01*
G75*
G02*
X74875000Y-56106250I0J-243750D01*
G01*
X74875000Y-56593750D01*
G75*
G02*
X74631250Y-56837500I-243750J0D01*
G01*
X74068750Y-56837500D01*
G75*
G02*
X73825000Y-56593750I0J243750D01*
G01*
X73825000Y-56106250D01*
G75*
G02*
X74068750Y-55862500I243750J0D01*
G01*
G37*
%TD*%
%TO.C,R8*%
G36*
G01*
X108337500Y-50068750D02*
X108337500Y-50631250D01*
G75*
G02*
X108093750Y-50875000I-243750J0D01*
G01*
X107606250Y-50875000D01*
G75*
G02*
X107362500Y-50631250I0J243750D01*
G01*
X107362500Y-50068750D01*
G75*
G02*
X107606250Y-49825000I243750J0D01*
G01*
X108093750Y-49825000D01*
G75*
G02*
X108337500Y-50068750I0J-243750D01*
G01*
G37*
G36*
G01*
X109912500Y-50068750D02*
X109912500Y-50631250D01*
G75*
G02*
X109668750Y-50875000I-243750J0D01*
G01*
X109181250Y-50875000D01*
G75*
G02*
X108937500Y-50631250I0J243750D01*
G01*
X108937500Y-50068750D01*
G75*
G02*
X109181250Y-49825000I243750J0D01*
G01*
X109668750Y-49825000D01*
G75*
G02*
X109912500Y-50068750I0J-243750D01*
G01*
G37*
%TD*%
%TO.C,R7*%
G36*
G01*
X70037500Y-51631250D02*
X70037500Y-51068750D01*
G75*
G02*
X70281250Y-50825000I243750J0D01*
G01*
X70768750Y-50825000D01*
G75*
G02*
X71012500Y-51068750I0J-243750D01*
G01*
X71012500Y-51631250D01*
G75*
G02*
X70768750Y-51875000I-243750J0D01*
G01*
X70281250Y-51875000D01*
G75*
G02*
X70037500Y-51631250I0J243750D01*
G01*
G37*
G36*
G01*
X71612500Y-51631250D02*
X71612500Y-51068750D01*
G75*
G02*
X71856250Y-50825000I243750J0D01*
G01*
X72343750Y-50825000D01*
G75*
G02*
X72587500Y-51068750I0J-243750D01*
G01*
X72587500Y-51631250D01*
G75*
G02*
X72343750Y-51875000I-243750J0D01*
G01*
X71856250Y-51875000D01*
G75*
G02*
X71612500Y-51631250I0J243750D01*
G01*
G37*
%TD*%
%TO.C,R6*%
G36*
G01*
X112150000Y-50631250D02*
X112150000Y-50068750D01*
G75*
G02*
X112393750Y-49825000I243750J0D01*
G01*
X112881250Y-49825000D01*
G75*
G02*
X113125000Y-50068750I0J-243750D01*
G01*
X113125000Y-50631250D01*
G75*
G02*
X112881250Y-50875000I-243750J0D01*
G01*
X112393750Y-50875000D01*
G75*
G02*
X112150000Y-50631250I0J243750D01*
G01*
G37*
G36*
G01*
X110575000Y-50631250D02*
X110575000Y-50068750D01*
G75*
G02*
X110818750Y-49825000I243750J0D01*
G01*
X111306250Y-49825000D01*
G75*
G02*
X111550000Y-50068750I0J-243750D01*
G01*
X111550000Y-50631250D01*
G75*
G02*
X111306250Y-50875000I-243750J0D01*
G01*
X110818750Y-50875000D01*
G75*
G02*
X110575000Y-50631250I0J243750D01*
G01*
G37*
%TD*%
%TO.C,R5*%
G36*
G01*
X52362500Y-26131250D02*
X52362500Y-25568750D01*
G75*
G02*
X52606250Y-25325000I243750J0D01*
G01*
X53093750Y-25325000D01*
G75*
G02*
X53337500Y-25568750I0J-243750D01*
G01*
X53337500Y-26131250D01*
G75*
G02*
X53093750Y-26375000I-243750J0D01*
G01*
X52606250Y-26375000D01*
G75*
G02*
X52362500Y-26131250I0J243750D01*
G01*
G37*
G36*
G01*
X53937500Y-26131250D02*
X53937500Y-25568750D01*
G75*
G02*
X54181250Y-25325000I243750J0D01*
G01*
X54668750Y-25325000D01*
G75*
G02*
X54912500Y-25568750I0J-243750D01*
G01*
X54912500Y-26131250D01*
G75*
G02*
X54668750Y-26375000I-243750J0D01*
G01*
X54181250Y-26375000D01*
G75*
G02*
X53937500Y-26131250I0J243750D01*
G01*
G37*
%TD*%
%TO.C,R4*%
G36*
G01*
X53881250Y-39912500D02*
X53318750Y-39912500D01*
G75*
G02*
X53075000Y-39668750I0J243750D01*
G01*
X53075000Y-39181250D01*
G75*
G02*
X53318750Y-38937500I243750J0D01*
G01*
X53881250Y-38937500D01*
G75*
G02*
X54125000Y-39181250I0J-243750D01*
G01*
X54125000Y-39668750D01*
G75*
G02*
X53881250Y-39912500I-243750J0D01*
G01*
G37*
G36*
G01*
X53881250Y-38337500D02*
X53318750Y-38337500D01*
G75*
G02*
X53075000Y-38093750I0J243750D01*
G01*
X53075000Y-37606250D01*
G75*
G02*
X53318750Y-37362500I243750J0D01*
G01*
X53881250Y-37362500D01*
G75*
G02*
X54125000Y-37606250I0J-243750D01*
G01*
X54125000Y-38093750D01*
G75*
G02*
X53881250Y-38337500I-243750J0D01*
G01*
G37*
%TD*%
%TO.C,R3*%
G36*
G01*
X57381250Y-39875000D02*
X56818750Y-39875000D01*
G75*
G02*
X56575000Y-39631250I0J243750D01*
G01*
X56575000Y-39143750D01*
G75*
G02*
X56818750Y-38900000I243750J0D01*
G01*
X57381250Y-38900000D01*
G75*
G02*
X57625000Y-39143750I0J-243750D01*
G01*
X57625000Y-39631250D01*
G75*
G02*
X57381250Y-39875000I-243750J0D01*
G01*
G37*
G36*
G01*
X57381250Y-38300000D02*
X56818750Y-38300000D01*
G75*
G02*
X56575000Y-38056250I0J243750D01*
G01*
X56575000Y-37568750D01*
G75*
G02*
X56818750Y-37325000I243750J0D01*
G01*
X57381250Y-37325000D01*
G75*
G02*
X57625000Y-37568750I0J-243750D01*
G01*
X57625000Y-38056250D01*
G75*
G02*
X57381250Y-38300000I-243750J0D01*
G01*
G37*
%TD*%
%TO.C,R2*%
G36*
G01*
X112068750Y-61787500D02*
X112631250Y-61787500D01*
G75*
G02*
X112875000Y-62031250I0J-243750D01*
G01*
X112875000Y-62518750D01*
G75*
G02*
X112631250Y-62762500I-243750J0D01*
G01*
X112068750Y-62762500D01*
G75*
G02*
X111825000Y-62518750I0J243750D01*
G01*
X111825000Y-62031250D01*
G75*
G02*
X112068750Y-61787500I243750J0D01*
G01*
G37*
G36*
G01*
X112068750Y-63362500D02*
X112631250Y-63362500D01*
G75*
G02*
X112875000Y-63606250I0J-243750D01*
G01*
X112875000Y-64093750D01*
G75*
G02*
X112631250Y-64337500I-243750J0D01*
G01*
X112068750Y-64337500D01*
G75*
G02*
X111825000Y-64093750I0J243750D01*
G01*
X111825000Y-63606250D01*
G75*
G02*
X112068750Y-63362500I243750J0D01*
G01*
G37*
%TD*%
%TO.C,R1*%
G36*
G01*
X116412500Y-76068750D02*
X116412500Y-76631250D01*
G75*
G02*
X116168750Y-76875000I-243750J0D01*
G01*
X115681250Y-76875000D01*
G75*
G02*
X115437500Y-76631250I0J243750D01*
G01*
X115437500Y-76068750D01*
G75*
G02*
X115681250Y-75825000I243750J0D01*
G01*
X116168750Y-75825000D01*
G75*
G02*
X116412500Y-76068750I0J-243750D01*
G01*
G37*
G36*
G01*
X114837500Y-76068750D02*
X114837500Y-76631250D01*
G75*
G02*
X114593750Y-76875000I-243750J0D01*
G01*
X114106250Y-76875000D01*
G75*
G02*
X113862500Y-76631250I0J243750D01*
G01*
X113862500Y-76068750D01*
G75*
G02*
X114106250Y-75825000I243750J0D01*
G01*
X114593750Y-75825000D01*
G75*
G02*
X114837500Y-76068750I0J-243750D01*
G01*
G37*
%TD*%
%TO.C,Q5*%
G36*
G01*
X60500000Y-62450000D02*
X60500000Y-66250000D01*
G75*
G02*
X60450000Y-66300000I-50000J0D01*
G01*
X58450000Y-66300000D01*
G75*
G02*
X58400000Y-66250000I0J50000D01*
G01*
X58400000Y-62450000D01*
G75*
G02*
X58450000Y-62400000I50000J0D01*
G01*
X60450000Y-62400000D01*
G75*
G02*
X60500000Y-62450000I0J-50000D01*
G01*
G37*
G36*
G01*
X66800000Y-63600000D02*
X66800000Y-65100000D01*
G75*
G02*
X66750000Y-65150000I-50000J0D01*
G01*
X64750000Y-65150000D01*
G75*
G02*
X64700000Y-65100000I0J50000D01*
G01*
X64700000Y-63600000D01*
G75*
G02*
X64750000Y-63550000I50000J0D01*
G01*
X66750000Y-63550000D01*
G75*
G02*
X66800000Y-63600000I0J-50000D01*
G01*
G37*
G36*
G01*
X66800000Y-61300000D02*
X66800000Y-62800000D01*
G75*
G02*
X66750000Y-62850000I-50000J0D01*
G01*
X64750000Y-62850000D01*
G75*
G02*
X64700000Y-62800000I0J50000D01*
G01*
X64700000Y-61300000D01*
G75*
G02*
X64750000Y-61250000I50000J0D01*
G01*
X66750000Y-61250000D01*
G75*
G02*
X66800000Y-61300000I0J-50000D01*
G01*
G37*
G36*
G01*
X66800000Y-65900000D02*
X66800000Y-67400000D01*
G75*
G02*
X66750000Y-67450000I-50000J0D01*
G01*
X64750000Y-67450000D01*
G75*
G02*
X64700000Y-67400000I0J50000D01*
G01*
X64700000Y-65900000D01*
G75*
G02*
X64750000Y-65850000I50000J0D01*
G01*
X66750000Y-65850000D01*
G75*
G02*
X66800000Y-65900000I0J-50000D01*
G01*
G37*
%TD*%
%TO.C,Q4*%
G36*
G01*
X99700000Y-46150000D02*
X99700000Y-47650000D01*
G75*
G02*
X99650000Y-47700000I-50000J0D01*
G01*
X97650000Y-47700000D01*
G75*
G02*
X97600000Y-47650000I0J50000D01*
G01*
X97600000Y-46150000D01*
G75*
G02*
X97650000Y-46100000I50000J0D01*
G01*
X99650000Y-46100000D01*
G75*
G02*
X99700000Y-46150000I0J-50000D01*
G01*
G37*
G36*
G01*
X99700000Y-41550000D02*
X99700000Y-43050000D01*
G75*
G02*
X99650000Y-43100000I-50000J0D01*
G01*
X97650000Y-43100000D01*
G75*
G02*
X97600000Y-43050000I0J50000D01*
G01*
X97600000Y-41550000D01*
G75*
G02*
X97650000Y-41500000I50000J0D01*
G01*
X99650000Y-41500000D01*
G75*
G02*
X99700000Y-41550000I0J-50000D01*
G01*
G37*
G36*
G01*
X99700000Y-43850000D02*
X99700000Y-45350000D01*
G75*
G02*
X99650000Y-45400000I-50000J0D01*
G01*
X97650000Y-45400000D01*
G75*
G02*
X97600000Y-45350000I0J50000D01*
G01*
X97600000Y-43850000D01*
G75*
G02*
X97650000Y-43800000I50000J0D01*
G01*
X99650000Y-43800000D01*
G75*
G02*
X99700000Y-43850000I0J-50000D01*
G01*
G37*
G36*
G01*
X93400000Y-42700000D02*
X93400000Y-46500000D01*
G75*
G02*
X93350000Y-46550000I-50000J0D01*
G01*
X91350000Y-46550000D01*
G75*
G02*
X91300000Y-46500000I0J50000D01*
G01*
X91300000Y-42700000D01*
G75*
G02*
X91350000Y-42650000I50000J0D01*
G01*
X93350000Y-42650000D01*
G75*
G02*
X93400000Y-42700000I0J-50000D01*
G01*
G37*
%TD*%
%TO.C,Q3*%
G36*
G01*
X112700000Y-46150000D02*
X112700000Y-47650000D01*
G75*
G02*
X112650000Y-47700000I-50000J0D01*
G01*
X110650000Y-47700000D01*
G75*
G02*
X110600000Y-47650000I0J50000D01*
G01*
X110600000Y-46150000D01*
G75*
G02*
X110650000Y-46100000I50000J0D01*
G01*
X112650000Y-46100000D01*
G75*
G02*
X112700000Y-46150000I0J-50000D01*
G01*
G37*
G36*
G01*
X112700000Y-41550000D02*
X112700000Y-43050000D01*
G75*
G02*
X112650000Y-43100000I-50000J0D01*
G01*
X110650000Y-43100000D01*
G75*
G02*
X110600000Y-43050000I0J50000D01*
G01*
X110600000Y-41550000D01*
G75*
G02*
X110650000Y-41500000I50000J0D01*
G01*
X112650000Y-41500000D01*
G75*
G02*
X112700000Y-41550000I0J-50000D01*
G01*
G37*
G36*
G01*
X112700000Y-43850000D02*
X112700000Y-45350000D01*
G75*
G02*
X112650000Y-45400000I-50000J0D01*
G01*
X110650000Y-45400000D01*
G75*
G02*
X110600000Y-45350000I0J50000D01*
G01*
X110600000Y-43850000D01*
G75*
G02*
X110650000Y-43800000I50000J0D01*
G01*
X112650000Y-43800000D01*
G75*
G02*
X112700000Y-43850000I0J-50000D01*
G01*
G37*
G36*
G01*
X106400000Y-42700000D02*
X106400000Y-46500000D01*
G75*
G02*
X106350000Y-46550000I-50000J0D01*
G01*
X104350000Y-46550000D01*
G75*
G02*
X104300000Y-46500000I0J50000D01*
G01*
X104300000Y-42700000D01*
G75*
G02*
X104350000Y-42650000I50000J0D01*
G01*
X106350000Y-42650000D01*
G75*
G02*
X106400000Y-42700000I0J-50000D01*
G01*
G37*
%TD*%
%TO.C,Q2*%
G36*
G01*
X85200000Y-62750000D02*
X85200000Y-58950000D01*
G75*
G02*
X85250000Y-58900000I50000J0D01*
G01*
X87250000Y-58900000D01*
G75*
G02*
X87300000Y-58950000I0J-50000D01*
G01*
X87300000Y-62750000D01*
G75*
G02*
X87250000Y-62800000I-50000J0D01*
G01*
X85250000Y-62800000D01*
G75*
G02*
X85200000Y-62750000I0J50000D01*
G01*
G37*
G36*
G01*
X78900000Y-61600000D02*
X78900000Y-60100000D01*
G75*
G02*
X78950000Y-60050000I50000J0D01*
G01*
X80950000Y-60050000D01*
G75*
G02*
X81000000Y-60100000I0J-50000D01*
G01*
X81000000Y-61600000D01*
G75*
G02*
X80950000Y-61650000I-50000J0D01*
G01*
X78950000Y-61650000D01*
G75*
G02*
X78900000Y-61600000I0J50000D01*
G01*
G37*
G36*
G01*
X78900000Y-63900000D02*
X78900000Y-62400000D01*
G75*
G02*
X78950000Y-62350000I50000J0D01*
G01*
X80950000Y-62350000D01*
G75*
G02*
X81000000Y-62400000I0J-50000D01*
G01*
X81000000Y-63900000D01*
G75*
G02*
X80950000Y-63950000I-50000J0D01*
G01*
X78950000Y-63950000D01*
G75*
G02*
X78900000Y-63900000I0J50000D01*
G01*
G37*
G36*
G01*
X78900000Y-59300000D02*
X78900000Y-57800000D01*
G75*
G02*
X78950000Y-57750000I50000J0D01*
G01*
X80950000Y-57750000D01*
G75*
G02*
X81000000Y-57800000I0J-50000D01*
G01*
X81000000Y-59300000D01*
G75*
G02*
X80950000Y-59350000I-50000J0D01*
G01*
X78950000Y-59350000D01*
G75*
G02*
X78900000Y-59300000I0J50000D01*
G01*
G37*
%TD*%
%TO.C,Q1*%
G36*
G01*
X70600000Y-57950000D02*
X70600000Y-54150000D01*
G75*
G02*
X70650000Y-54100000I50000J0D01*
G01*
X72650000Y-54100000D01*
G75*
G02*
X72700000Y-54150000I0J-50000D01*
G01*
X72700000Y-57950000D01*
G75*
G02*
X72650000Y-58000000I-50000J0D01*
G01*
X70650000Y-58000000D01*
G75*
G02*
X70600000Y-57950000I0J50000D01*
G01*
G37*
G36*
G01*
X64300000Y-56800000D02*
X64300000Y-55300000D01*
G75*
G02*
X64350000Y-55250000I50000J0D01*
G01*
X66350000Y-55250000D01*
G75*
G02*
X66400000Y-55300000I0J-50000D01*
G01*
X66400000Y-56800000D01*
G75*
G02*
X66350000Y-56850000I-50000J0D01*
G01*
X64350000Y-56850000D01*
G75*
G02*
X64300000Y-56800000I0J50000D01*
G01*
G37*
G36*
G01*
X64300000Y-59100000D02*
X64300000Y-57600000D01*
G75*
G02*
X64350000Y-57550000I50000J0D01*
G01*
X66350000Y-57550000D01*
G75*
G02*
X66400000Y-57600000I0J-50000D01*
G01*
X66400000Y-59100000D01*
G75*
G02*
X66350000Y-59150000I-50000J0D01*
G01*
X64350000Y-59150000D01*
G75*
G02*
X64300000Y-59100000I0J50000D01*
G01*
G37*
G36*
G01*
X64300000Y-54500000D02*
X64300000Y-53000000D01*
G75*
G02*
X64350000Y-52950000I50000J0D01*
G01*
X66350000Y-52950000D01*
G75*
G02*
X66400000Y-53000000I0J-50000D01*
G01*
X66400000Y-54500000D01*
G75*
G02*
X66350000Y-54550000I-50000J0D01*
G01*
X64350000Y-54550000D01*
G75*
G02*
X64300000Y-54500000I0J50000D01*
G01*
G37*
%TD*%
%TO.C,J1*%
G36*
G01*
X99950000Y-64540000D02*
X98250000Y-64540000D01*
G75*
G02*
X98200000Y-64490000I0J50000D01*
G01*
X98200000Y-62790000D01*
G75*
G02*
X98250000Y-62740000I50000J0D01*
G01*
X99950000Y-62740000D01*
G75*
G02*
X100000000Y-62790000I0J-50000D01*
G01*
X100000000Y-64490000D01*
G75*
G02*
X99950000Y-64540000I-50000J0D01*
G01*
G37*
D15*
X99100000Y-61100000D03*
X101640000Y-63640000D03*
X101640000Y-61100000D03*
X104180000Y-63640000D03*
X104180000Y-61100000D03*
%TD*%
%TO.C,FB1*%
G36*
G01*
X65062500Y-24831250D02*
X65062500Y-23868750D01*
G75*
G02*
X65331250Y-23600000I268750J0D01*
G01*
X65868750Y-23600000D01*
G75*
G02*
X66137500Y-23868750I0J-268750D01*
G01*
X66137500Y-24831250D01*
G75*
G02*
X65868750Y-25100000I-268750J0D01*
G01*
X65331250Y-25100000D01*
G75*
G02*
X65062500Y-24831250I0J268750D01*
G01*
G37*
G36*
G01*
X63187500Y-24831250D02*
X63187500Y-23868750D01*
G75*
G02*
X63456250Y-23600000I268750J0D01*
G01*
X63993750Y-23600000D01*
G75*
G02*
X64262500Y-23868750I0J-268750D01*
G01*
X64262500Y-24831250D01*
G75*
G02*
X63993750Y-25100000I-268750J0D01*
G01*
X63456250Y-25100000D01*
G75*
G02*
X63187500Y-24831250I0J268750D01*
G01*
G37*
%TD*%
%TO.C,D7*%
G36*
G01*
X90750000Y-58850000D02*
X91450000Y-58850000D01*
G75*
G02*
X91500000Y-58900000I0J-50000D01*
G01*
X91500000Y-59500000D01*
G75*
G02*
X91450000Y-59550000I-50000J0D01*
G01*
X90750000Y-59550000D01*
G75*
G02*
X90700000Y-59500000I0J50000D01*
G01*
X90700000Y-58900000D01*
G75*
G02*
X90750000Y-58850000I50000J0D01*
G01*
G37*
G36*
G01*
X90750000Y-60250000D02*
X91450000Y-60250000D01*
G75*
G02*
X91500000Y-60300000I0J-50000D01*
G01*
X91500000Y-60900000D01*
G75*
G02*
X91450000Y-60950000I-50000J0D01*
G01*
X90750000Y-60950000D01*
G75*
G02*
X90700000Y-60900000I0J50000D01*
G01*
X90700000Y-60300000D01*
G75*
G02*
X90750000Y-60250000I50000J0D01*
G01*
G37*
%TD*%
%TO.C,D6*%
G36*
G01*
X82250000Y-65950000D02*
X82250000Y-65250000D01*
G75*
G02*
X82300000Y-65200000I50000J0D01*
G01*
X82900000Y-65200000D01*
G75*
G02*
X82950000Y-65250000I0J-50000D01*
G01*
X82950000Y-65950000D01*
G75*
G02*
X82900000Y-66000000I-50000J0D01*
G01*
X82300000Y-66000000D01*
G75*
G02*
X82250000Y-65950000I0J50000D01*
G01*
G37*
G36*
G01*
X83650000Y-65950000D02*
X83650000Y-65250000D01*
G75*
G02*
X83700000Y-65200000I50000J0D01*
G01*
X84300000Y-65200000D01*
G75*
G02*
X84350000Y-65250000I0J-50000D01*
G01*
X84350000Y-65950000D01*
G75*
G02*
X84300000Y-66000000I-50000J0D01*
G01*
X83700000Y-66000000D01*
G75*
G02*
X83650000Y-65950000I0J50000D01*
G01*
G37*
%TD*%
%TO.C,D5*%
G36*
G01*
X115450000Y-48050000D02*
X114750000Y-48050000D01*
G75*
G02*
X114700000Y-48000000I0J50000D01*
G01*
X114700000Y-47400000D01*
G75*
G02*
X114750000Y-47350000I50000J0D01*
G01*
X115450000Y-47350000D01*
G75*
G02*
X115500000Y-47400000I0J-50000D01*
G01*
X115500000Y-48000000D01*
G75*
G02*
X115450000Y-48050000I-50000J0D01*
G01*
G37*
G36*
G01*
X115450000Y-49450000D02*
X114750000Y-49450000D01*
G75*
G02*
X114700000Y-49400000I0J50000D01*
G01*
X114700000Y-48800000D01*
G75*
G02*
X114750000Y-48750000I50000J0D01*
G01*
X115450000Y-48750000D01*
G75*
G02*
X115500000Y-48800000I0J-50000D01*
G01*
X115500000Y-49400000D01*
G75*
G02*
X115450000Y-49450000I-50000J0D01*
G01*
G37*
%TD*%
%TO.C,D4*%
G36*
G01*
X115200000Y-45750000D02*
X115200000Y-46450000D01*
G75*
G02*
X115150000Y-46500000I-50000J0D01*
G01*
X114550000Y-46500000D01*
G75*
G02*
X114500000Y-46450000I0J50000D01*
G01*
X114500000Y-45750000D01*
G75*
G02*
X114550000Y-45700000I50000J0D01*
G01*
X115150000Y-45700000D01*
G75*
G02*
X115200000Y-45750000I0J-50000D01*
G01*
G37*
G36*
G01*
X116600000Y-45750000D02*
X116600000Y-46450000D01*
G75*
G02*
X116550000Y-46500000I-50000J0D01*
G01*
X115950000Y-46500000D01*
G75*
G02*
X115900000Y-46450000I0J50000D01*
G01*
X115900000Y-45750000D01*
G75*
G02*
X115950000Y-45700000I50000J0D01*
G01*
X116550000Y-45700000D01*
G75*
G02*
X116600000Y-45750000I0J-50000D01*
G01*
G37*
%TD*%
%TO.C,D3*%
G36*
G01*
X108200000Y-52300000D02*
X107500000Y-52300000D01*
G75*
G02*
X107450000Y-52250000I0J50000D01*
G01*
X107450000Y-51650000D01*
G75*
G02*
X107500000Y-51600000I50000J0D01*
G01*
X108200000Y-51600000D01*
G75*
G02*
X108250000Y-51650000I0J-50000D01*
G01*
X108250000Y-52250000D01*
G75*
G02*
X108200000Y-52300000I-50000J0D01*
G01*
G37*
G36*
G01*
X108200000Y-53700000D02*
X107500000Y-53700000D01*
G75*
G02*
X107450000Y-53650000I0J50000D01*
G01*
X107450000Y-53050000D01*
G75*
G02*
X107500000Y-53000000I50000J0D01*
G01*
X108200000Y-53000000D01*
G75*
G02*
X108250000Y-53050000I0J-50000D01*
G01*
X108250000Y-53650000D01*
G75*
G02*
X108200000Y-53700000I-50000J0D01*
G01*
G37*
%TD*%
%TO.C,D2*%
G36*
G01*
X68710000Y-22085000D02*
X67490000Y-22085000D01*
G75*
G02*
X67440000Y-22035000I0J50000D01*
G01*
X67440000Y-21125000D01*
G75*
G02*
X67490000Y-21075000I50000J0D01*
G01*
X68710000Y-21075000D01*
G75*
G02*
X68760000Y-21125000I0J-50000D01*
G01*
X68760000Y-22035000D01*
G75*
G02*
X68710000Y-22085000I-50000J0D01*
G01*
G37*
G36*
G01*
X68710000Y-25355000D02*
X67490000Y-25355000D01*
G75*
G02*
X67440000Y-25305000I0J50000D01*
G01*
X67440000Y-24395000D01*
G75*
G02*
X67490000Y-24345000I50000J0D01*
G01*
X68710000Y-24345000D01*
G75*
G02*
X68760000Y-24395000I0J-50000D01*
G01*
X68760000Y-25305000D01*
G75*
G02*
X68710000Y-25355000I-50000J0D01*
G01*
G37*
%TD*%
%TO.C,D1*%
G36*
G01*
X55787500Y-26131250D02*
X55787500Y-25568750D01*
G75*
G02*
X56031250Y-25325000I243750J0D01*
G01*
X56518750Y-25325000D01*
G75*
G02*
X56762500Y-25568750I0J-243750D01*
G01*
X56762500Y-26131250D01*
G75*
G02*
X56518750Y-26375000I-243750J0D01*
G01*
X56031250Y-26375000D01*
G75*
G02*
X55787500Y-26131250I0J243750D01*
G01*
G37*
G36*
G01*
X57362500Y-26131250D02*
X57362500Y-25568750D01*
G75*
G02*
X57606250Y-25325000I243750J0D01*
G01*
X58093750Y-25325000D01*
G75*
G02*
X58337500Y-25568750I0J-243750D01*
G01*
X58337500Y-26131250D01*
G75*
G02*
X58093750Y-26375000I-243750J0D01*
G01*
X57606250Y-26375000D01*
G75*
G02*
X57362500Y-26131250I0J243750D01*
G01*
G37*
%TD*%
%TO.C,C16*%
G36*
G01*
X102631250Y-49512500D02*
X102068750Y-49512500D01*
G75*
G02*
X101825000Y-49268750I0J243750D01*
G01*
X101825000Y-48781250D01*
G75*
G02*
X102068750Y-48537500I243750J0D01*
G01*
X102631250Y-48537500D01*
G75*
G02*
X102875000Y-48781250I0J-243750D01*
G01*
X102875000Y-49268750D01*
G75*
G02*
X102631250Y-49512500I-243750J0D01*
G01*
G37*
G36*
G01*
X102631250Y-51087500D02*
X102068750Y-51087500D01*
G75*
G02*
X101825000Y-50843750I0J243750D01*
G01*
X101825000Y-50356250D01*
G75*
G02*
X102068750Y-50112500I243750J0D01*
G01*
X102631250Y-50112500D01*
G75*
G02*
X102875000Y-50356250I0J-243750D01*
G01*
X102875000Y-50843750D01*
G75*
G02*
X102631250Y-51087500I-243750J0D01*
G01*
G37*
%TD*%
%TO.C,C15*%
G36*
G01*
X84787500Y-56381250D02*
X84787500Y-55818750D01*
G75*
G02*
X85031250Y-55575000I243750J0D01*
G01*
X85518750Y-55575000D01*
G75*
G02*
X85762500Y-55818750I0J-243750D01*
G01*
X85762500Y-56381250D01*
G75*
G02*
X85518750Y-56625000I-243750J0D01*
G01*
X85031250Y-56625000D01*
G75*
G02*
X84787500Y-56381250I0J243750D01*
G01*
G37*
G36*
G01*
X86362500Y-56381250D02*
X86362500Y-55818750D01*
G75*
G02*
X86606250Y-55575000I243750J0D01*
G01*
X87093750Y-55575000D01*
G75*
G02*
X87337500Y-55818750I0J-243750D01*
G01*
X87337500Y-56381250D01*
G75*
G02*
X87093750Y-56625000I-243750J0D01*
G01*
X86606250Y-56625000D01*
G75*
G02*
X86362500Y-56381250I0J243750D01*
G01*
G37*
%TD*%
%TO.C,C14*%
G36*
G01*
X74068750Y-57612500D02*
X74631250Y-57612500D01*
G75*
G02*
X74875000Y-57856250I0J-243750D01*
G01*
X74875000Y-58343750D01*
G75*
G02*
X74631250Y-58587500I-243750J0D01*
G01*
X74068750Y-58587500D01*
G75*
G02*
X73825000Y-58343750I0J243750D01*
G01*
X73825000Y-57856250D01*
G75*
G02*
X74068750Y-57612500I243750J0D01*
G01*
G37*
G36*
G01*
X74068750Y-59187500D02*
X74631250Y-59187500D01*
G75*
G02*
X74875000Y-59431250I0J-243750D01*
G01*
X74875000Y-59918750D01*
G75*
G02*
X74631250Y-60162500I-243750J0D01*
G01*
X74068750Y-60162500D01*
G75*
G02*
X73825000Y-59918750I0J243750D01*
G01*
X73825000Y-59431250D01*
G75*
G02*
X74068750Y-59187500I243750J0D01*
G01*
G37*
%TD*%
%TO.C,C13*%
G36*
G01*
X71306250Y-18762500D02*
X70743750Y-18762500D01*
G75*
G02*
X70500000Y-18518750I0J243750D01*
G01*
X70500000Y-18031250D01*
G75*
G02*
X70743750Y-17787500I243750J0D01*
G01*
X71306250Y-17787500D01*
G75*
G02*
X71550000Y-18031250I0J-243750D01*
G01*
X71550000Y-18518750D01*
G75*
G02*
X71306250Y-18762500I-243750J0D01*
G01*
G37*
G36*
G01*
X71306250Y-20337500D02*
X70743750Y-20337500D01*
G75*
G02*
X70500000Y-20093750I0J243750D01*
G01*
X70500000Y-19606250D01*
G75*
G02*
X70743750Y-19362500I243750J0D01*
G01*
X71306250Y-19362500D01*
G75*
G02*
X71550000Y-19606250I0J-243750D01*
G01*
X71550000Y-20093750D01*
G75*
G02*
X71306250Y-20337500I-243750J0D01*
G01*
G37*
%TD*%
%TO.C,C10*%
G36*
G01*
X71350000Y-42310000D02*
X71350000Y-44390000D01*
G75*
G02*
X71090000Y-44650000I-260000J0D01*
G01*
X67110000Y-44650000D01*
G75*
G02*
X66850000Y-44390000I0J260000D01*
G01*
X66850000Y-42310000D01*
G75*
G02*
X67110000Y-42050000I260000J0D01*
G01*
X71090000Y-42050000D01*
G75*
G02*
X71350000Y-42310000I0J-260000D01*
G01*
G37*
G36*
G01*
X62950000Y-42310000D02*
X62950000Y-44390000D01*
G75*
G02*
X62690000Y-44650000I-260000J0D01*
G01*
X58710000Y-44650000D01*
G75*
G02*
X58450000Y-44390000I0J260000D01*
G01*
X58450000Y-42310000D01*
G75*
G02*
X58710000Y-42050000I260000J0D01*
G01*
X62690000Y-42050000D01*
G75*
G02*
X62950000Y-42310000I0J-260000D01*
G01*
G37*
%TD*%
%TO.C,C9*%
G36*
G01*
X72362500Y-38881250D02*
X72362500Y-38318750D01*
G75*
G02*
X72606250Y-38075000I243750J0D01*
G01*
X73093750Y-38075000D01*
G75*
G02*
X73337500Y-38318750I0J-243750D01*
G01*
X73337500Y-38881250D01*
G75*
G02*
X73093750Y-39125000I-243750J0D01*
G01*
X72606250Y-39125000D01*
G75*
G02*
X72362500Y-38881250I0J243750D01*
G01*
G37*
G36*
G01*
X73937500Y-38881250D02*
X73937500Y-38318750D01*
G75*
G02*
X74181250Y-38075000I243750J0D01*
G01*
X74668750Y-38075000D01*
G75*
G02*
X74912500Y-38318750I0J-243750D01*
G01*
X74912500Y-38881250D01*
G75*
G02*
X74668750Y-39125000I-243750J0D01*
G01*
X74181250Y-39125000D01*
G75*
G02*
X73937500Y-38881250I0J243750D01*
G01*
G37*
%TD*%
%TO.C,C11*%
G36*
G01*
X55631250Y-39912500D02*
X55068750Y-39912500D01*
G75*
G02*
X54825000Y-39668750I0J243750D01*
G01*
X54825000Y-39181250D01*
G75*
G02*
X55068750Y-38937500I243750J0D01*
G01*
X55631250Y-38937500D01*
G75*
G02*
X55875000Y-39181250I0J-243750D01*
G01*
X55875000Y-39668750D01*
G75*
G02*
X55631250Y-39912500I-243750J0D01*
G01*
G37*
G36*
G01*
X55631250Y-38337500D02*
X55068750Y-38337500D01*
G75*
G02*
X54825000Y-38093750I0J243750D01*
G01*
X54825000Y-37606250D01*
G75*
G02*
X55068750Y-37362500I243750J0D01*
G01*
X55631250Y-37362500D01*
G75*
G02*
X55875000Y-37606250I0J-243750D01*
G01*
X55875000Y-38093750D01*
G75*
G02*
X55631250Y-38337500I-243750J0D01*
G01*
G37*
%TD*%
%TO.C,C8*%
G36*
G01*
X61631250Y-26412500D02*
X61068750Y-26412500D01*
G75*
G02*
X60825000Y-26168750I0J243750D01*
G01*
X60825000Y-25681250D01*
G75*
G02*
X61068750Y-25437500I243750J0D01*
G01*
X61631250Y-25437500D01*
G75*
G02*
X61875000Y-25681250I0J-243750D01*
G01*
X61875000Y-26168750D01*
G75*
G02*
X61631250Y-26412500I-243750J0D01*
G01*
G37*
G36*
G01*
X61631250Y-24837500D02*
X61068750Y-24837500D01*
G75*
G02*
X60825000Y-24593750I0J243750D01*
G01*
X60825000Y-24106250D01*
G75*
G02*
X61068750Y-23862500I243750J0D01*
G01*
X61631250Y-23862500D01*
G75*
G02*
X61875000Y-24106250I0J-243750D01*
G01*
X61875000Y-24593750D01*
G75*
G02*
X61631250Y-24837500I-243750J0D01*
G01*
G37*
%TD*%
%TO.C,C7*%
G36*
G01*
X67818750Y-17787500D02*
X68381250Y-17787500D01*
G75*
G02*
X68625000Y-18031250I0J-243750D01*
G01*
X68625000Y-18518750D01*
G75*
G02*
X68381250Y-18762500I-243750J0D01*
G01*
X67818750Y-18762500D01*
G75*
G02*
X67575000Y-18518750I0J243750D01*
G01*
X67575000Y-18031250D01*
G75*
G02*
X67818750Y-17787500I243750J0D01*
G01*
G37*
G36*
G01*
X67818750Y-19362500D02*
X68381250Y-19362500D01*
G75*
G02*
X68625000Y-19606250I0J-243750D01*
G01*
X68625000Y-20093750D01*
G75*
G02*
X68381250Y-20337500I-243750J0D01*
G01*
X67818750Y-20337500D01*
G75*
G02*
X67575000Y-20093750I0J243750D01*
G01*
X67575000Y-19606250D01*
G75*
G02*
X67818750Y-19362500I243750J0D01*
G01*
G37*
%TD*%
%TO.C,C6*%
G36*
G01*
X119612500Y-70131250D02*
X119612500Y-69568750D01*
G75*
G02*
X119856250Y-69325000I243750J0D01*
G01*
X120343750Y-69325000D01*
G75*
G02*
X120587500Y-69568750I0J-243750D01*
G01*
X120587500Y-70131250D01*
G75*
G02*
X120343750Y-70375000I-243750J0D01*
G01*
X119856250Y-70375000D01*
G75*
G02*
X119612500Y-70131250I0J243750D01*
G01*
G37*
G36*
G01*
X121187500Y-70131250D02*
X121187500Y-69568750D01*
G75*
G02*
X121431250Y-69325000I243750J0D01*
G01*
X121918750Y-69325000D01*
G75*
G02*
X122162500Y-69568750I0J-243750D01*
G01*
X122162500Y-70131250D01*
G75*
G02*
X121918750Y-70375000I-243750J0D01*
G01*
X121431250Y-70375000D01*
G75*
G02*
X121187500Y-70131250I0J243750D01*
G01*
G37*
%TD*%
%TO.C,C5*%
G36*
G01*
X119612500Y-68381250D02*
X119612500Y-67818750D01*
G75*
G02*
X119856250Y-67575000I243750J0D01*
G01*
X120343750Y-67575000D01*
G75*
G02*
X120587500Y-67818750I0J-243750D01*
G01*
X120587500Y-68381250D01*
G75*
G02*
X120343750Y-68625000I-243750J0D01*
G01*
X119856250Y-68625000D01*
G75*
G02*
X119612500Y-68381250I0J243750D01*
G01*
G37*
G36*
G01*
X121187500Y-68381250D02*
X121187500Y-67818750D01*
G75*
G02*
X121431250Y-67575000I243750J0D01*
G01*
X121918750Y-67575000D01*
G75*
G02*
X122162500Y-67818750I0J-243750D01*
G01*
X122162500Y-68381250D01*
G75*
G02*
X121918750Y-68625000I-243750J0D01*
G01*
X121431250Y-68625000D01*
G75*
G02*
X121187500Y-68381250I0J243750D01*
G01*
G37*
%TD*%
%TO.C,C4*%
G36*
G01*
X119612500Y-62131250D02*
X119612500Y-61568750D01*
G75*
G02*
X119856250Y-61325000I243750J0D01*
G01*
X120343750Y-61325000D01*
G75*
G02*
X120587500Y-61568750I0J-243750D01*
G01*
X120587500Y-62131250D01*
G75*
G02*
X120343750Y-62375000I-243750J0D01*
G01*
X119856250Y-62375000D01*
G75*
G02*
X119612500Y-62131250I0J243750D01*
G01*
G37*
G36*
G01*
X121187500Y-62131250D02*
X121187500Y-61568750D01*
G75*
G02*
X121431250Y-61325000I243750J0D01*
G01*
X121918750Y-61325000D01*
G75*
G02*
X122162500Y-61568750I0J-243750D01*
G01*
X122162500Y-62131250D01*
G75*
G02*
X121918750Y-62375000I-243750J0D01*
G01*
X121431250Y-62375000D01*
G75*
G02*
X121187500Y-62131250I0J243750D01*
G01*
G37*
%TD*%
%TO.C,C3*%
G36*
G01*
X119612500Y-71881250D02*
X119612500Y-71318750D01*
G75*
G02*
X119856250Y-71075000I243750J0D01*
G01*
X120343750Y-71075000D01*
G75*
G02*
X120587500Y-71318750I0J-243750D01*
G01*
X120587500Y-71881250D01*
G75*
G02*
X120343750Y-72125000I-243750J0D01*
G01*
X119856250Y-72125000D01*
G75*
G02*
X119612500Y-71881250I0J243750D01*
G01*
G37*
G36*
G01*
X121187500Y-71881250D02*
X121187500Y-71318750D01*
G75*
G02*
X121431250Y-71075000I243750J0D01*
G01*
X121918750Y-71075000D01*
G75*
G02*
X122162500Y-71318750I0J-243750D01*
G01*
X122162500Y-71881250D01*
G75*
G02*
X121918750Y-72125000I-243750J0D01*
G01*
X121431250Y-72125000D01*
G75*
G02*
X121187500Y-71881250I0J243750D01*
G01*
G37*
%TD*%
%TO.C,C2*%
G36*
G01*
X107587500Y-69318750D02*
X107587500Y-69881250D01*
G75*
G02*
X107343750Y-70125000I-243750J0D01*
G01*
X106856250Y-70125000D01*
G75*
G02*
X106612500Y-69881250I0J243750D01*
G01*
X106612500Y-69318750D01*
G75*
G02*
X106856250Y-69075000I243750J0D01*
G01*
X107343750Y-69075000D01*
G75*
G02*
X107587500Y-69318750I0J-243750D01*
G01*
G37*
G36*
G01*
X106012500Y-69318750D02*
X106012500Y-69881250D01*
G75*
G02*
X105768750Y-70125000I-243750J0D01*
G01*
X105281250Y-70125000D01*
G75*
G02*
X105037500Y-69881250I0J243750D01*
G01*
X105037500Y-69318750D01*
G75*
G02*
X105281250Y-69075000I243750J0D01*
G01*
X105768750Y-69075000D01*
G75*
G02*
X106012500Y-69318750I0J-243750D01*
G01*
G37*
%TD*%
M02*
