M48
; DRILL file {KiCad (5.1.12)-1} date 11/10/22 12:01:48
; FORMAT={-:-/ absolute / inch / decimal}
; #@! TF.CreationDate,2022-11-10T12:01:48-07:00
; #@! TF.GenerationSoftware,Kicad,Pcbnew,(5.1.12)-1
; #@! TF.FileFunction,Plated,1,2,PTH
FMAT,2
INCH
T1C0.0118
T2C0.0256
T3C0.0276
T4C0.0315
T5C0.0394
T6C0.0512
%
G90
G05
T1
X1.9984Y-0.6639
X1.9984Y-1.0192
X1.9984Y-1.3744
X1.9984Y-1.7297
X1.9984Y-2.085
X1.9984Y-2.4403
X1.9984Y-2.7955
X2.0872Y-3.062
X2.0894Y-2.8269
X2.1414Y-2.8009
X2.1745Y-2.778
X2.1761Y-1.1968
X2.2057Y-0.8415
X2.2114Y-1.3289
X2.2353Y-1.6113
X2.2649Y-1.9666
X2.2649Y-2.3218
X2.2934Y-1.8709
X2.2945Y-2.6475
X2.3386Y-1.0551
X2.3394Y-1.3289
X2.3574Y-2.9934
X2.3833Y-2.914
X2.3994Y-2.5349
X2.4129Y-1.3152
X2.4173Y-1.189
X2.4414Y-0.9189
X2.4425Y-1.7889
X2.4488Y-2.2205
X2.4721Y-2.4699
X2.4794Y-0.8949
X2.5017Y-1.0192
X2.5294Y-2.5329
X2.5313Y-2.0554
X2.5609Y-0.6639
X2.5669Y-1.189
X2.5748Y-1.3858
X2.5906Y-1.4929
X2.5906Y-2.7067
X2.5906Y-3.062
X2.6334Y-2.2069
X2.6498Y-2.2922
X2.6772Y-1.0157
X2.6794Y-1.1968
X2.7114Y-1.8649
X2.7386Y-0.8415
X2.7386Y-1.9073
X2.7534Y-2.7049
X2.7614Y-2.2069
X2.7682Y-2.5291
X2.7682Y-2.8844
X2.8189Y-1.1496
X2.874Y-1.1102
X2.8866Y-1.3448
X2.8866Y-2.1738
X2.9162Y-0.6639
X2.9162Y-1.0192
X2.9354Y-2.5789
X2.9457Y-1.8016
X2.9458Y-1.7297
X2.9458Y-3.062
X2.9714Y-2.1569
X2.9754Y-2.6771
X3.0074Y-2.3829
X3.0643Y-1.9666
X3.0834Y-2.5829
X3.0874Y-2.3889
X3.0939Y-0.8415
X3.0939Y-1.4929
X3.1234Y-2.6209
X3.1235Y-2.8844
X3.1314Y-2.1589
X3.1694Y-1.8229
X3.1827Y-1.108
X3.1894Y-2.0389
X3.1894Y-2.2329
X3.2074Y-2.3909
X3.2123Y-2.2922
X3.2419Y-1.7889
X3.2454Y-2.5049
X3.2514Y-2.6229
X3.2677Y-1.4016
X3.2715Y-0.6639
X3.2756Y-2.0709
X3.3011Y-1.3448
X3.3011Y-2.6179
X3.3011Y-3.062
X3.3314Y-2.3929
X3.3603Y-0.9303
X3.3899Y-1.9962
X3.4195Y-1.5817
X3.4491Y-2.8251
X3.4674Y-2.2689
X3.4787Y-2.381
X3.4794Y-2.6589
X3.4854Y-2.5049
X3.5083Y-1.1968
X3.538Y-0.7527
X3.5676Y-1.8185
X3.5874Y-2.6549
X3.5972Y-2.1442
X3.6268Y-1.4336
X3.6268Y-2.5883
X3.6268Y-3.0324
X3.6714Y-2.2989
X3.686Y-1.0192
X3.6974Y-1.7569
X3.7094Y-2.7069
X3.7638Y-2.6929
X3.7748Y-1.6409
X3.7748Y-2.7955
X3.8034Y-2.6289
X3.8044Y-0.6639
X3.8044Y-1.9666
X3.8044Y-2.3218
X3.8194Y-1.8609
X3.8214Y-1.7569
X3.8268Y-2.8031
X3.8583Y-2.8819
X3.8636Y-1.1968
X3.874Y-2.0709
X3.8819Y-2.5984
X3.9054Y-2.0349
X3.9055Y-2.6614
X3.9055Y-2.7559
X3.9228Y-0.9007
X3.9291Y-2.9055
X3.9524Y-1.4632
X3.9524Y-3.062
X3.9764Y-2.9055
X3.9774Y-1.6152
X3.9921Y-2.6929
X4.0Y-2.7874
X4.0014Y-2.6049
X4.0117Y-2.1442
X4.0394Y-2.9291
X4.0551Y-2.6929
X4.0694Y-1.6629
X4.0709Y-1.7297
X4.0734Y-1.8669
X4.1005Y-0.7231
X4.1005Y-1.0784
X4.1016Y-2.9299
X4.1074Y-1.9389
X4.1094Y-2.0349
X4.1154Y-3.0089
X4.1301Y-2.8844
X4.1597Y-2.3514
X4.189Y-2.7717
X4.1893Y-1.3448
X4.1969Y-2.2756
X4.1969Y-2.9055
X4.2074Y-1.7569
X4.2134Y-2.6329
X4.2214Y-2.4209
X4.2454Y-1.9409
X4.2756Y-2.9055
X4.2781Y-0.9007
X4.2781Y-2.0554
X4.2874Y-1.6609
X4.2874Y-2.6089
X4.2894Y-1.8469
X4.3007Y-2.5662
X4.3014Y-2.1249
X4.3077Y-1.5817
X4.3077Y-3.062
X4.315Y-3.0079
X4.3294Y-1.8469
X4.3334Y-1.7569
X4.3334Y-2.4669
X4.3574Y-2.6789
X4.3669Y-1.1672
X4.3854Y-2.4209
X4.3937Y-3.0709
X4.3965Y-0.6639
X4.4016Y-2.8031
X4.4261Y-2.6475
X4.4325Y-2.8637
X4.4557Y-1.7889
X4.4574Y-3.0089
X4.4674Y-2.8089
X4.4854Y-2.2034
X4.5118Y-1.0315
X4.5118Y-1.6142
X4.5197Y-2.6929
X4.5397Y-2.8121
X4.5446Y-1.3448
X4.5707Y-2.7156
X4.5742Y-0.9599
X4.5748Y-2.8425
X4.5814Y-1.8609
X4.5854Y-2.2469
X4.5901Y-1.9376
X4.6038Y-2.4403
X4.6054Y-3.0049
X4.6254Y-2.9417
X4.6334Y-1.9962
X4.663Y-1.5817
X4.663Y-3.0324
X4.6774Y-2.6069
X4.6926Y-0.7231
X4.6934Y-2.7189
X4.7222Y-1.1672
X4.7294Y-3.0069
X4.7534Y-2.4029
X4.7814Y-2.2626
X4.811Y-1.7889
X4.8294Y-2.4069
X4.8334Y-2.7389
X4.8334Y-2.8349
X4.8346Y-3.0709
X4.8406Y-1.404
X4.8406Y-2.5587
X4.8434Y-2.5149
X4.8702Y-0.9007
X4.8998Y-2.914
X4.9294Y-2.0554
X4.9887Y-0.6639
X5.0183Y-1.108
X5.0183Y-1.5817
X5.0183Y-2.381
X5.0236Y-1.0157
X5.0472Y-2.2756
X5.0775Y-2.7363
X5.1071Y-3.062
X5.1663Y-1.3152
X5.1663Y-1.7889
X5.1663Y-2.1738
X5.1959Y-0.8119
T5
X3.9016Y-2.4055
X3.9016Y-2.5055
X4.0016Y-2.4055
X4.0016Y-2.5055
X4.1016Y-2.4055
X4.1016Y-2.5055
T6
X3.6614Y-0.7874
X3.8583Y-0.7874
X4.1535Y-0.8071
X4.3504Y-0.8071
X4.5472Y-0.8071
X4.7441Y-0.8071
T2
G00X2.3565Y-0.838
M15
G01X2.3565Y-0.8537
M16
G05
G00X2.547Y-0.838
M15
G01X2.547Y-0.8537
M16
G05
T3
G00X2.3443Y-0.7179
M15
G01X2.3443Y-0.7376
M16
G05
G00X2.5593Y-0.7179
M15
G01X2.5593Y-0.7376
M16
G05
T4
G00X3.0039Y-1.0197
M15
G01X3.0039Y-1.1063
M16
G05
G00X3.2362Y-0.9528
M15
G01X3.1496Y-0.9528
M16
G05
G00X3.2441Y-1.1811
M15
G01X3.1417Y-1.1811
M16
G05
T0
M30
